<svg xmlns="http://www.w3.org/2000/svg" xml:space="preserve" style="enable-background:new 0 0 150 150;" viewBox="0 0 150 150" y="0px" x="0px" id="Layer_1" version="1.1">
<style type="text/css">
	.st0{fill:#3E4C34;}
	.st1{fill:#FFFFFF;}
	.st2{fill:#447726;stroke:#FFFFFF;stroke-width:2;stroke-miterlimit:10;}
	.st3{fill:#1F4208;}
	.st4{fill:#474747;}
	.st5{fill:#3D434C;}
	.st6{fill:#E0E0E0;}
	.st7{fill:#7EAD59;}
	.st8{fill:#285909;}
	.st9{fill:#447726;}
	.st10{opacity:0.38;}
	.st11{fill:#CECECE;}
	.st12{fill:#052B54;}
	.st13{fill:none;stroke:#285909;stroke-width:5;stroke-miterlimit:10;}
	.st14{fill:#0F2D43;}
	.st15{opacity:0.91;fill:#285909;}
	.st16{fill:none;stroke:#000000;stroke-width:5;stroke-miterlimit:10;}
	.st17{opacity:0.14;}
	.st18{fill:none;stroke:#142D04;stroke-width:5;stroke-miterlimit:10;}
	.st19{fill:#142D04;}
	.st20{opacity:0.1;}
	.st21{fill:none;stroke:#FFFFFF;stroke-width:2;stroke-miterlimit:10;}
	.st22{fill:#F7B126;stroke:#FFFFFF;stroke-width:2;stroke-miterlimit:10;}
	.st23{fill:#FFFFFF;stroke:#FFFFFF;stroke-width:2;stroke-miterlimit:10;}
	.st24{fill:url(#SVGID_1_);}
	.st25{fill:#F7B126;}
	.st26{fill:#939393;}
	.st27{fill:#248145;}
	.st28{fill:url(#SVGID_00000057111636973927460520000012752882901378664327_);}
	.st29{fill:#B2B2B2;}
	.st30{fill:#FFF8B6;stroke:#FFFFFF;stroke-width:2;stroke-miterlimit:10;}
	.st31{fill:#FFCB48;}
	.st32{fill:#E8E8E8;stroke:#FFFFFF;stroke-width:2;stroke-miterlimit:10;}
	.st33{fill:#6CB951;}
	.st34{fill:#0C0C0C;}
	.st35{fill:#E3FFD7;stroke:#FFFFFF;stroke-width:2;stroke-miterlimit:10;}
	.st36{fill:#1C1C1C;stroke:#FFFFFF;stroke-width:2;stroke-miterlimit:10;}
	.st37{fill:url(#SVGID_00000134955762584949653500000012157915169382531713_);}
	.st38{fill:#1C1C1C;}
	.st39{fill:url(#SVGID_00000151505324248406631240000005716132851226450057_);}
	.st40{fill:#9BA4A8;}
	.st41{fill:url(#SVGID_00000066513558092786539380000014652994577562402220_);}
	.st42{fill:#98A0A3;}
	.st43{fill:url(#SVGID_00000140709701801347859430000007764297727816652455_);}
	.st44{fill:url(#SVGID_00000082363707014936361310000000884719779547153060_);}
	.st45{fill:url(#SVGID_00000145759624692311784790000006149949833989491587_);}
	.st46{fill:url(#SVGID_00000127758119148378208530000017776991061378571677_);}
	.st47{fill:#999999;}
	.st48{fill:url(#SVGID_00000173856612385755220980000007459665039158251965_);}
	.st49{fill:url(#SVGID_00000090992278374957892930000001574101352890530474_);}
	.st50{fill:url(#SVGID_00000145018097789033470560000012566119126700645264_);}
	.st51{fill:url(#SVGID_00000168825285267776447430000001425605480642286245_);}
	.st52{fill:url(#SVGID_00000141438772380530337830000013545527533734558118_);}
	.st53{fill:url(#SVGID_00000145032176882273918360000017443687379039182485_);}
	.st54{fill:url(#SVGID_00000008136624005104352400000000273569255813825176_);}
	.st55{fill:url(#SVGID_00000111193834593831263900000002268222675724989617_);}
	.st56{fill:url(#SVGID_00000132782793089011963420000017735118328916267451_);}
	.st57{fill:url(#SVGID_00000164482829167610757010000002102363210198595473_);}
	.st58{fill:url(#SVGID_00000065064140940448869690000015364776479797797554_);}
	.st59{opacity:0.84;fill:#606060;}
</style>
<g>
	<path d="M82.1,6.2L82.1,6.2L7.94,5.85C6.79,5.85,5.85,6.78,5.85,7.94l0,66.08c0,39.63,32.85,71.91,72.43,70.06   c36.67-1.71,65.87-31.98,65.87-69.08C144.15,39.2,116.95,9.76,82.1,6.2z" class="st25" />
	<path d="M75.01,144.86c-17.84,0-34.71-6.78-47.82-19.3C13.17,112.18,5.13,93.39,5.13,74.01V7.94   c0-0.75,0.29-1.45,0.82-1.98C6.49,5.42,7.2,5.16,7.94,5.14l74.23,0.35c17.11,1.75,32.94,9.75,44.56,22.54   c11.7,12.88,18.14,29.56,18.14,46.97c0,37.39-29.23,68.05-66.55,69.79C77.21,144.84,76.11,144.86,75.01,144.86z M7.93,6.57   c-0.36,0-0.71,0.14-0.97,0.4c-0.26,0.26-0.4,0.6-0.4,0.97v66.08c0,18.99,7.88,37.4,21.62,50.51c13.64,13.01,31.42,19.7,50.07,18.83   c36.55-1.71,65.19-31.73,65.19-68.36c0-35.23-26.38-64.49-61.38-68.08L7.93,6.57C7.94,6.57,7.93,6.57,7.93,6.57z" class="st1" />
	<g>
		<circle r="60.66" cy="74.98" cx="74.57" class="st1" />
		<path d="M74.57,136.36c-33.85,0-61.38-27.54-61.38-61.38S40.72,13.6,74.57,13.6s61.38,27.54,61.38,61.38    S108.41,136.36,74.57,136.36z M74.57,15.04c-33.06,0-59.95,26.89-59.95,59.95s26.89,59.95,59.95,59.95s59.95-26.89,59.95-59.95    S107.62,15.04,74.57,15.04z" class="st1" />
	</g>
	<linearGradient y2="61.6323" x2="107.7464" y1="127.7878" x1="41.5909" gradientUnits="userSpaceOnUse" id="SVGID_1_">
		<stop style="stop-color:#FFCB48" offset="0" />
		<stop style="stop-color:#FFCC4A" offset="0.2674" />
		<stop style="stop-color:#FFCD51" offset="0.3637" />
		<stop style="stop-color:#FFD15C" offset="0.4324" />
		<stop style="stop-color:#FFD66D" offset="0.4879" />
		<stop style="stop-color:#FFDC83" offset="0.5354" />
		<stop style="stop-color:#FFE49F" offset="0.5775" />
		<stop style="stop-color:#FFEDBE" offset="0.6146" />
		<stop style="stop-color:#FFEFC5" offset="0.6218" />
		<stop style="stop-color:#FFEDBE" offset="0.6261" />
		<stop style="stop-color:#FFE49F" offset="0.6487" />
		<stop style="stop-color:#FFDC83" offset="0.6743" />
		<stop style="stop-color:#FFD66D" offset="0.7032" />
		<stop style="stop-color:#FFD15C" offset="0.737" />
		<stop style="stop-color:#FFCD51" offset="0.7788" />
		<stop style="stop-color:#FFCC4A" offset="0.8374" />
		<stop style="stop-color:#FFCB48" offset="1" />
	</linearGradient>
	<path d="M15.38,87.85c5.72,27.3,30.09,47.8,59.29,47.8s53.57-20.51,59.29-47.8H15.38z" class="st24" />
	<path d="M23.39,106.86h102.98l7.58-17.09H18.04C18.04,89.77,9.9,87.82,23.39,106.86z" class="st25" />
	<g>
		<path d="M96.4,44.36c-0.01,11.88-9.59,21.67-21.69,21.65C62.59,66,53.04,56.15,53.08,44.29    c0.04-11.87,9.65-21.59,21.67-21.59C86.74,22.7,96.39,32.41,96.4,44.36z M95.91,44.35c-0.01-11.69-9.47-21.17-21.18-21.16    c-11.71,0.01-21.16,9.5-21.16,21.18c0,11.69,9.49,21.2,21.24,21.16C86.49,65.49,95.91,56.01,95.91,44.35z" class="st26" />
		<path d="M91.22,44.36c-0.01,9.21-7.51,16.53-16.57,16.48c-9.02-0.05-16.39-7.39-16.39-16.5    c0.01-9.01,7.3-16.48,16.52-16.46C83.93,27.9,91.22,35.31,91.22,44.36z M74.74,60.33c8.88,0,15.95-7.21,15.98-15.93    c0.02-8.76-7.04-15.94-15.84-16.02c-8.82-0.07-16.09,7.03-16.11,15.95C58.76,53.2,65.95,60.33,74.74,60.33z" class="st26" />
		<path d="M78.45,26.67c0.04-0.06,0.08-0.11,0.12-0.17c0.39-0.56,0.77-1.13,1.16-1.69c0.1-0.14,0.1-0.14,0.27-0.1    c0.21,0.04,0.42,0.09,0.63,0.16c-0.03,0-0.07,0.01-0.1,0.01c-0.18,0-0.31,0.09-0.36,0.26c-0.06,0.2-0.1,0.41-0.15,0.61    c-0.09,0.42-0.17,0.83-0.26,1.25c-0.01,0.07-0.02,0.14-0.03,0.21c-0.02,0.2,0.06,0.33,0.24,0.41c0.01,0.01,0.03,0.01,0.04,0.02    c0.01,0,0.02,0.01,0.02,0.04c-0.41-0.09-0.83-0.17-1.28-0.26c0.39-0.05,0.48-0.11,0.55-0.44c0.14-0.62,0.26-1.24,0.39-1.86    c0-0.02,0-0.04-0.01-0.07c-0.11,0.1-0.18,0.23-0.27,0.35c-0.09,0.12-0.17,0.24-0.26,0.37c-0.09,0.13-0.18,0.25-0.26,0.38    c-0.09,0.13-0.18,0.25-0.26,0.38c-0.08,0.12-0.17,0.25-0.25,0.37c-0.09,0.13-0.18,0.25-0.28,0.37c-0.21-0.88-0.38-1.77-0.59-2.65    c-0.01,0.05-0.03,0.09-0.04,0.14c-0.12,0.57-0.23,1.13-0.35,1.7c-0.01,0.07-0.02,0.14-0.03,0.21c-0.01,0.19,0.06,0.32,0.23,0.4    c0.02,0.01,0.03,0.01,0.05,0.02c0.01,0,0.02,0.01,0.02,0.04c-0.29-0.06-0.58-0.12-0.86-0.18c0-0.01,0-0.02,0-0.03    c0.02,0,0.04,0,0.07-0.01c0.22-0.01,0.34-0.08,0.4-0.3c0.06-0.19,0.09-0.39,0.13-0.58c0.09-0.42,0.17-0.84,0.26-1.27    c0.01-0.06,0.02-0.12,0.02-0.18c0.01-0.24-0.04-0.33-0.25-0.43c-0.02-0.01-0.04-0.02-0.05-0.05c0.09,0.02,0.19,0.03,0.28,0.05    c0.15,0.03,0.3,0.07,0.45,0.09c0.09,0.01,0.13,0.06,0.15,0.15c0.1,0.55,0.2,1.11,0.3,1.66c0.04,0.2,0.07,0.4,0.11,0.6    C78.42,26.66,78.43,26.67,78.45,26.67z" class="st26" />
		<path d="M89.9,33.12c-0.06-0.07-0.12-0.05-0.19,0c-0.2,0.14-0.4,0.28-0.59,0.43c-0.29,0.22-0.32,0.32-0.23,0.67    c-0.25-0.35-0.5-0.69-0.75-1.05c0.03,0,0.04,0,0.05,0.01c0.22,0.2,0.35,0.22,0.6,0.05c0.4-0.27,0.79-0.56,1.19-0.84    c0.1-0.07,0.21-0.15,0.31-0.22c0.27-0.21,0.3-0.29,0.23-0.63c0.03,0.04,0.06,0.06,0.08,0.09c0.22,0.3,0.45,0.6,0.65,0.92    c0.1,0.15,0.19,0.32,0.25,0.5c0.1,0.29-0.02,0.57-0.26,0.74c-0.23,0.16-0.51,0.17-0.75,0.02c-0.06-0.04-0.12-0.08-0.2-0.14    c0.04,0.29-0.12,0.49-0.23,0.71c-0.1,0.21-0.21,0.41-0.31,0.62c-0.05,0.11-0.08,0.23-0.04,0.37c-0.06-0.09-0.13-0.18-0.19-0.26    c-0.06-0.09-0.13-0.18-0.19-0.28c0.07-0.11,0.13-0.22,0.19-0.33c0.12-0.22,0.25-0.44,0.36-0.67c0.1-0.2,0.15-0.4,0.06-0.62    c0.05,0.05,0.1,0.1,0.15,0.16c0.09,0.09,0.19,0.15,0.32,0.16c0.34,0.05,0.67-0.14,0.8-0.46c0.12-0.27,0.02-0.59-0.25-0.82    c-0.34,0.25-0.69,0.49-1.03,0.74C89.85,33.02,89.84,33.07,89.9,33.12z" class="st26" />
		<path d="M59.81,32.86c0.04,0.02,0.07,0.04,0.11,0.07c0.19,0.15,0.39,0.31,0.58,0.46c0.08,0.06,0.17,0.11,0.26,0.15    c0.11,0.05,0.22,0.02,0.31-0.04c0.04-0.02,0.08-0.06,0.13-0.06c-0.27,0.33-0.53,0.66-0.81,1c-0.01-0.03-0.01-0.04-0.01-0.04    c0.13-0.27,0.12-0.4-0.11-0.6c-0.49-0.41-0.98-0.8-1.48-1.2c-0.24-0.19-0.35-0.18-0.66,0.03c0.04-0.06,0.06-0.1,0.09-0.13    c0.23-0.29,0.46-0.58,0.7-0.86c0.12-0.14,0.25-0.27,0.39-0.38c0.23-0.17,0.49-0.19,0.75-0.04c0.29,0.17,0.41,0.49,0.3,0.81    c-0.02,0.06-0.04,0.11-0.07,0.2c0.23-0.11,0.43-0.05,0.64,0c0.22,0.05,0.44,0.09,0.66,0.14c0.16,0.03,0.33,0.07,0.48-0.04    c-0.03,0.04-0.06,0.08-0.09,0.11c-0.11,0.13-0.21,0.27-0.32,0.4c-0.23-0.06-0.45-0.12-0.67-0.17c-0.18-0.04-0.37-0.07-0.55-0.1    c-0.24-0.04-0.44,0.02-0.58,0.22C59.85,32.83,59.82,32.84,59.81,32.86c0.07-0.1,0.14-0.21,0.22-0.31c0.07-0.1,0.11-0.22,0.1-0.34    c-0.03-0.37-0.35-0.68-0.72-0.7c-0.12-0.01-0.23,0.02-0.33,0.09c-0.14,0.1-0.24,0.22-0.34,0.36c0.04,0.03,0.07,0.06,0.1,0.09    c0.31,0.25,0.62,0.5,0.93,0.75C59.78,32.82,59.79,32.84,59.81,32.86z" class="st26" />
		<path d="M61.25,55.78c0,0.83-0.66,1.5-1.48,1.49c-0.75-0.01-1.59-0.53-1.6-1.56c-0.01-0.87,0.64-1.52,1.48-1.51    C60.55,54.2,61.25,54.9,61.25,55.78z M60.12,54.48c-0.08,0.01-0.15,0.01-0.23,0.02c-0.69,0.15-1.17,0.56-1.46,1.2    c-0.07,0.14-0.1,0.29-0.08,0.45c0.05,0.53,0.53,0.9,1.07,0.81c0.55-0.08,0.99-0.36,1.34-0.78c0.12-0.15,0.2-0.32,0.26-0.5    c0.05-0.18,0.08-0.36,0.03-0.54C60.93,54.74,60.58,54.49,60.12,54.48z" class="st26" />
		<path d="M56.71,35.28c-0.01-1.26,1.33-1.84,2.18-1.41c0.44,0.22,0.7,0.58,0.81,1.05c0.18,0.78-0.27,1.59-1.03,1.85    c-0.93,0.31-1.9-0.34-1.96-1.32C56.71,35.39,56.71,35.34,56.71,35.28z M58.59,36.47c0.06,0,0.12,0,0.18-0.01    c0.66-0.05,1.04-0.71,0.76-1.29c-0.05-0.09-0.1-0.19-0.16-0.27c-0.28-0.39-0.68-0.61-1.13-0.73c-0.24-0.07-0.49-0.09-0.74-0.03    c-0.48,0.1-0.8,0.62-0.67,1.09c0.02,0.07,0.04,0.15,0.08,0.22C57.29,36.07,57.85,36.41,58.59,36.47z" class="st26" />
		<path d="M88.72,55.12c0-0.89,0.72-1.6,1.6-1.59c0.67,0.01,1.27,0.52,1.4,1.17c0.05,0.28,0.05,0.55-0.03,0.82    c-0.18,0.6-0.59,0.96-1.2,1.08c-0.61,0.12-1.11-0.07-1.49-0.57C88.81,55.79,88.72,55.46,88.72,55.12z M90.56,56.32    c0.61,0,1-0.33,1.05-0.8c0.03-0.22-0.04-0.42-0.14-0.6c-0.26-0.46-0.64-0.77-1.12-0.96c-0.22-0.09-0.46-0.11-0.7-0.08    c-0.53,0.07-0.88,0.56-0.75,1.08c0.03,0.12,0.07,0.25,0.13,0.36C89.39,55.95,89.97,56.26,90.56,56.32z" class="st26" />
		<path d="M76.05,26.69c-0.12,0.05-0.21,0.08-0.3,0.13c-0.53,0.27-1.07,0.28-1.61,0.04c-0.3-0.14-0.5-0.37-0.61-0.69    c-0.16-0.47-0.13-0.94,0.09-1.39c0.23-0.49,0.64-0.73,1.16-0.8c0.31-0.04,0.6,0.01,0.89,0.15c0.18,0.09,0.19,0.08,0.35-0.07    c0.02,0.3,0.01,0.59,0.02,0.87c-0.01,0-0.02,0-0.04,0.01c-0.02-0.05-0.03-0.1-0.06-0.14c-0.08-0.16-0.15-0.32-0.25-0.46    c-0.3-0.43-0.94-0.39-1.23-0.09c-0.22,0.23-0.37,0.49-0.45,0.8c-0.12,0.47-0.1,0.93,0.13,1.37c0.14,0.26,0.34,0.47,0.64,0.53    c0.4,0.09,0.76-0.15,0.83-0.54c0.05-0.28-0.06-0.44-0.34-0.51c-0.03-0.01-0.06-0.01-0.1-0.02c0.43,0,0.84,0,1.26,0    c-0.01,0.02-0.02,0.04-0.02,0.04c-0.29,0.07-0.32,0.1-0.35,0.39C76.04,26.45,76.05,26.59,76.05,26.69z" class="st26" />
		<path d="M67.38,28.55c0.04-0.03,0.08-0.06,0.11-0.09c0.16-0.15,0.15-0.28-0.03-0.4c-0.21-0.13-0.42-0.26-0.64-0.39    c-0.08-0.05-0.17-0.1-0.26-0.16c-0.02,0.03-0.03,0.05-0.04,0.06c-0.07,0.29-0.14,0.59-0.21,0.89c-0.01,0.03-0.01,0.07-0.02,0.1    c-0.02,0.25,0.12,0.37,0.37,0.32c0.02,0,0.04-0.01,0.07,0.01c-0.28,0.13-0.56,0.27-0.84,0.4c0.23-0.3,0.28-0.65,0.37-0.98    c0.07-0.27,0.13-0.55,0.2-0.83c-0.04-0.03-0.08-0.06-0.12-0.08c-0.34-0.2-0.68-0.4-1.02-0.61c-0.2-0.12-0.41-0.23-0.65-0.08    c0-0.01,0-0.03,0-0.04c0.38-0.18,0.77-0.37,1.15-0.55c0,0.01,0.01,0.01,0.01,0.02c-0.03,0.02-0.06,0.04-0.08,0.07    c-0.13,0.11-0.13,0.2,0,0.32c0.02,0.02,0.03,0.03,0.05,0.04c0.25,0.15,0.5,0.3,0.76,0.46c0.02-0.05,0.04-0.08,0.05-0.12    c0.06-0.25,0.12-0.49,0.17-0.74c0.01-0.05,0.02-0.1,0.01-0.15c-0.02-0.15-0.1-0.21-0.25-0.19c-0.04,0.01-0.07,0.01-0.12,0    c0.24-0.12,0.49-0.23,0.73-0.35c-0.15,0.14-0.2,0.32-0.25,0.5c-0.08,0.34-0.16,0.69-0.24,1.03c0,0.02,0,0.03,0,0.06    c0.03,0.02,0.06,0.05,0.09,0.07c0.37,0.22,0.74,0.44,1.11,0.66c0.09,0.05,0.18,0.09,0.27,0.13c0.17,0.08,0.34,0.1,0.51,0.03    c0,0.01,0.01,0.02,0.01,0.03c-0.42,0.2-0.84,0.4-1.26,0.6C67.39,28.57,67.38,28.56,67.38,28.55z" class="st26" />
		<path d="M88.66,32.54c-0.19,0.18-0.39,0.35-0.59,0.54c-0.59-0.6-1.17-1.19-1.78-1.81c0.05,0.02,0.07,0.02,0.08,0.03    c0.23,0.14,0.36,0.14,0.57-0.04c0.19-0.16,0.36-0.34,0.54-0.52c0.25-0.24,0.49-0.48,0.73-0.72c0.05-0.05,0.1-0.1,0.15-0.16    c0.16-0.19,0.17-0.32,0.04-0.54c-0.01-0.01-0.01-0.03,0-0.06c0.52,0.53,1.04,1.06,1.57,1.6c-0.15,0.17-0.3,0.33-0.45,0.49    c-0.01,0-0.02-0.01-0.02-0.01c0.02-0.04,0.05-0.09,0.07-0.13c0.11-0.22,0.11-0.44-0.02-0.65c-0.15-0.25-0.38-0.43-0.58-0.65    c-0.32,0.31-0.62,0.6-0.92,0.9c0.29,0.39,0.45,0.43,0.84,0.21c-0.06,0.11-0.53,0.58-0.78,0.77c0.09-0.18,0.22-0.32,0.18-0.51    c-0.04-0.18-0.15-0.3-0.3-0.42c-0.23,0.24-0.49,0.45-0.69,0.72c-0.14,0.19-0.14,0.39-0.01,0.59c0.12,0.18,0.27,0.33,0.46,0.44    c0.23,0.13,0.45,0.11,0.68,0.01c0.07-0.03,0.14-0.07,0.21-0.11C88.65,32.52,88.65,32.53,88.66,32.54z" class="st26" />
		<path d="M54.82,48.43c0.02,0.04,0.04,0.07,0.06,0.11c0.1,0.15,0.24,0.21,0.41,0.18c0.14-0.03,0.28-0.07,0.42-0.1    c0.61-0.17,1.22-0.34,1.83-0.52c0.05-0.01,0.1-0.02,0.15-0.04c0.05,0.09-0.01,0.13-0.04,0.18c-0.18,0.26-0.37,0.51-0.55,0.77    c-0.38,0.52-0.75,1.05-1.13,1.57c-0.03,0.05-0.07,0.1-0.12,0.17c0.06-0.01,0.1-0.01,0.13-0.02c0.56-0.16,1.12-0.31,1.67-0.47    c0.07-0.02,0.14-0.04,0.2-0.07c0.21-0.08,0.28-0.2,0.28-0.42c0-0.02,0-0.04,0.01-0.07c0.1,0.28,0.18,0.56,0.24,0.85    c-0.2-0.29-0.3-0.34-0.66-0.24c-0.56,0.15-1.13,0.32-1.69,0.48c-0.05,0.01-0.09,0.03-0.14,0.05c-0.21,0.09-0.28,0.2-0.27,0.42    c0,0.02,0,0.04-0.02,0.07c-0.01-0.04-0.03-0.08-0.04-0.11c-0.05-0.16-0.08-0.32-0.14-0.48c-0.04-0.11-0.02-0.19,0.05-0.27    c0.48-0.65,0.95-1.3,1.43-1.95c0.04-0.05,0.07-0.11,0.13-0.18c-0.05,0-0.09,0-0.11,0.01c-0.47,0.13-0.95,0.27-1.42,0.4    c-0.03,0.01-0.06,0.02-0.09,0.03c-0.29,0.1-0.36,0.2-0.38,0.52C55,49.14,54.96,49,54.92,48.86c-0.04-0.14-0.08-0.28-0.12-0.43    C54.8,48.43,54.81,48.43,54.82,48.43z" class="st26" />
		<path d="M89.4,57.87c-0.04-0.05-0.07-0.08-0.09-0.11c-0.41-0.42-0.82-0.84-1.23-1.25c-0.05-0.05-0.1-0.1-0.16-0.15    c-0.15-0.12-0.31-0.14-0.48-0.03c-0.02,0.01-0.04,0.02-0.08,0.01c0.1-0.1,0.2-0.2,0.31-0.3c0.11-0.1,0.21-0.21,0.32-0.32    c0,0.02,0.01,0.03,0.01,0.04c-0.15,0.25-0.16,0.38,0.04,0.59c0.32,0.35,0.66,0.68,0.99,1.02c0.11,0.11,0.22,0.23,0.34,0.34    c0.23,0.21,0.35,0.22,0.63,0.08c-0.02,0.03-0.05,0.06-0.07,0.09c-0.12,0.12-0.25,0.24-0.37,0.36c-0.07,0.07-0.14,0.09-0.24,0.08    c-0.37-0.05-0.73-0.1-1.1-0.15c-0.48-0.06-0.96-0.12-1.45-0.19c-0.02,0-0.04,0-0.09,0c0.03,0.05,0.05,0.08,0.07,0.1    c0.34,0.35,0.68,0.7,1.02,1.04c0.05,0.05,0.1,0.1,0.16,0.14c0.14,0.12,0.3,0.14,0.46,0.04c0.01-0.01,0.03-0.02,0.04-0.02    c0,0,0.01,0,0.05,0c-0.22,0.22-0.42,0.42-0.63,0.62c-0.01-0.02-0.02-0.02-0.01-0.03c0.16-0.29,0.16-0.4-0.09-0.66    c-0.5-0.52-1-1.03-1.51-1.54c-0.04-0.04-0.08-0.09-0.15-0.16c0.07-0.01,0.11-0.03,0.15-0.03c0.54,0.07,1.07,0.13,1.61,0.2    c0.47,0.06,0.94,0.12,1.41,0.18C89.32,57.88,89.34,57.87,89.4,57.87z" class="st26" />
		<path d="M91.48,39.46c0.18,0.29,0.29,0.35,0.65,0.27c0.4-0.09,0.8-0.18,1.19-0.27c0.19-0.04,0.38-0.08,0.56-0.13    c0.32-0.09,0.38-0.17,0.42-0.5c0.16,0.7,0.32,1.4,0.48,2.12c-0.22,0.07-0.42,0.14-0.62,0.2c0-0.01-0.01-0.02-0.01-0.03    c0.04-0.03,0.09-0.06,0.13-0.09c0.21-0.16,0.32-0.37,0.3-0.63c-0.01-0.24-0.07-0.48-0.14-0.72c-0.41,0.09-0.82,0.19-1.21,0.28    c0.04,0.49,0.26,0.7,0.7,0.71c-0.39,0.09-0.78,0.17-1.17,0.26c0.17-0.11,0.36-0.19,0.42-0.41c0.05-0.18,0.02-0.35-0.03-0.54    c-0.11,0.02-0.2,0.04-0.3,0.07c-0.26,0.06-0.52,0.12-0.77,0.19c-0.17,0.05-0.27,0.16-0.29,0.34c0,0.04,0,0.08-0.03,0.13    C91.67,40.27,91.58,39.86,91.48,39.46z" class="st26" />
		<path d="M55.57,37.81c0.41,0.15,0.8,0.28,1.2,0.42c0.09-0.18,0.13-0.36,0.1-0.55c-0.03-0.2-0.19-0.32-0.34-0.44    c0.38,0.14,0.76,0.28,1.14,0.41c-0.19,0.01-0.39-0.03-0.55,0.11c-0.15,0.12-0.22,0.29-0.28,0.47c0.01,0.01,0.03,0.02,0.04,0.03    c0.32,0.11,0.63,0.22,0.95,0.33c0.11,0.04,0.23,0.05,0.34-0.01c0.08-0.05,0.14-0.13,0.23-0.22c-0.14,0.41-0.28,0.8-0.42,1.2    c-0.02-0.01-0.03-0.02-0.03-0.02c0.04-0.28-0.02-0.4-0.28-0.51c-0.16-0.07-0.32-0.12-0.48-0.18c-0.39-0.14-0.78-0.28-1.17-0.41    c-0.09-0.03-0.18-0.06-0.27-0.08c-0.2-0.05-0.32,0.01-0.44,0.18c-0.02,0.02-0.03,0.05-0.05,0.08c0-0.12,0.59-1.83,0.71-2.07    c0.2,0.05,0.41,0.1,0.61,0.15c0,0.01,0,0.02,0,0.03c-0.03,0-0.07,0.01-0.1,0.01c-0.34,0.02-0.58,0.17-0.71,0.48    C55.71,37.42,55.65,37.6,55.57,37.81z" class="st26" />
		<path d="M90.07,36.02c0.03,0.03,0.05,0.07,0.08,0.1c0.1,0.11,0.23,0.15,0.38,0.11c0.08-0.02,0.16-0.05,0.23-0.09    c0.64-0.32,1.29-0.64,1.93-0.96c0.02-0.01,0.05-0.03,0.08-0.05c-0.01-0.04-0.02-0.08-0.04-0.11c-0.08-0.14-0.16-0.28-0.25-0.41    c-0.17-0.25-0.41-0.33-0.69-0.28c-0.05,0.01-0.1,0.02-0.15,0.02c0-0.01-0.01-0.02-0.01-0.03c0.21-0.09,0.43-0.19,0.67-0.29    c0.43,0.86,0.85,1.71,1.28,2.57c-0.23,0.13-0.43,0.25-0.64,0.36c-0.01-0.01-0.01-0.01-0.02-0.02c0.03-0.03,0.07-0.07,0.1-0.1    c0.24-0.22,0.3-0.48,0.2-0.78c-0.06-0.18-0.13-0.35-0.23-0.52c-0.06,0.02-0.1,0.04-0.15,0.06c-0.61,0.3-1.22,0.6-1.82,0.91    c-0.07,0.03-0.14,0.07-0.2,0.11c-0.18,0.12-0.23,0.24-0.19,0.47c0,0.02,0,0.03-0.02,0.06c-0.19-0.37-0.37-0.74-0.56-1.12    C90.05,36.03,90.06,36.03,90.07,36.02z" class="st26" />
		<path d="M77.19,61.74c0.03,0.29,0.06,0.54,0.09,0.79c-0.01,0-0.02,0.01-0.03,0.01c-0.02-0.04-0.04-0.09-0.06-0.13    c-0.07-0.16-0.15-0.31-0.28-0.43c-0.12-0.11-0.25-0.18-0.42-0.17c-0.2,0.01-0.36,0.09-0.45,0.28c-0.09,0.2-0.07,0.39,0.07,0.56    c0.09,0.11,0.22,0.18,0.36,0.23c0.12,0.05,0.24,0.09,0.36,0.13c0.09,0.04,0.18,0.07,0.27,0.12c0.38,0.21,0.55,0.56,0.46,0.97    c-0.08,0.38-0.4,0.65-0.81,0.69c-0.21,0.02-0.41,0-0.6-0.08c-0.12-0.04-0.23-0.05-0.33,0.1c-0.03-0.31-0.05-0.58-0.08-0.85    c0.01,0,0.02-0.01,0.03-0.01c0.02,0.04,0.04,0.07,0.05,0.11c0.08,0.18,0.17,0.35,0.31,0.48c0.14,0.13,0.3,0.2,0.49,0.2    c0.3-0.01,0.53-0.22,0.55-0.52c0.02-0.26-0.07-0.49-0.31-0.64c-0.12-0.08-0.26-0.13-0.39-0.19c-0.12-0.06-0.25-0.1-0.36-0.16    c-0.37-0.19-0.5-0.56-0.36-0.96c0.14-0.38,0.51-0.6,0.89-0.52c0.09,0.02,0.17,0.04,0.26,0.07C77,61.87,77.1,61.89,77.19,61.74z" class="st26" />
		<path d="M93.43,52.44c-0.24-0.07-0.45-0.13-0.66-0.19c-0.01,0-0.02-0.02-0.05-0.04c0.08,0,0.14,0,0.19,0    c0.26,0,0.46-0.11,0.6-0.32c0.12-0.18,0.2-0.38,0.26-0.6c-0.04-0.02-0.08-0.04-0.12-0.06c-0.67-0.24-1.33-0.47-2-0.7    c-0.07-0.03-0.15-0.05-0.22-0.06c-0.18-0.03-0.32,0.03-0.41,0.18c-0.01,0.02-0.03,0.04-0.07,0.06c0.14-0.4,0.28-0.79,0.42-1.2    c0.01,0.02,0.02,0.03,0.02,0.04c-0.05,0.28,0.08,0.43,0.31,0.51c0.31,0.11,0.62,0.22,0.94,0.33c0.37,0.13,0.75,0.26,1.13,0.4    c0.05,0.02,0.1,0.03,0.16,0.05c0.09-0.24,0.17-0.48,0.18-0.73c0.01-0.18-0.08-0.33-0.21-0.45c-0.07-0.07-0.15-0.13-0.22-0.21    c0.23,0.09,0.45,0.19,0.69,0.28C94.06,50.64,93.75,51.53,93.43,52.44z" class="st26" />
		<path d="M62.92,31.5c-0.16-0.19-0.31-0.38-0.47-0.58c-0.01-0.02-0.02-0.04-0.02-0.07c0.04,0.02,0.08,0.04,0.12,0.07    c0.16,0.1,0.33,0.19,0.51,0.22c0.23,0.04,0.43-0.01,0.59-0.18c0.18-0.17,0.22-0.43,0.1-0.66c-0.14-0.27-0.42-0.42-0.71-0.37    c-0.23,0.03-0.46,0.08-0.68,0.12c-0.43,0.08-0.74-0.18-0.86-0.53c-0.13-0.39,0.04-0.79,0.4-0.97c0.09-0.04,0.19-0.07,0.28-0.1    c0.16-0.06,0.17-0.06,0.21-0.23c0.18,0.2,0.34,0.4,0.53,0.61c-0.09,0-0.13-0.04-0.17-0.07c-0.15-0.1-0.31-0.17-0.48-0.2    c-0.36-0.06-0.68,0.22-0.64,0.57c0.03,0.25,0.23,0.45,0.5,0.46c0.13,0,0.26-0.03,0.39-0.05c0.23-0.04,0.45-0.1,0.68-0.12    c0.57-0.03,0.89,0.47,0.88,0.89c-0.01,0.23-0.1,0.42-0.25,0.58c-0.18,0.19-0.4,0.31-0.65,0.37c-0.12,0.03-0.22,0.08-0.21,0.24    C62.94,31.5,62.93,31.5,62.92,31.5z" class="st26" />
		<path d="M69.81,27.61c-0.06-0.28-0.12-0.54-0.19-0.8c0.01,0,0.02-0.01,0.03-0.01c0.03,0.04,0.06,0.09,0.09,0.13    c0.08,0.11,0.16,0.23,0.26,0.32c0.09,0.08,0.2,0.16,0.32,0.19c0.43,0.14,0.83-0.2,0.75-0.65c-0.04-0.24-0.17-0.42-0.39-0.52    c-0.14-0.06-0.29-0.09-0.44-0.14c-0.1-0.03-0.2-0.05-0.3-0.08c-0.59-0.18-0.67-0.85-0.37-1.24c0.17-0.22,0.39-0.31,0.66-0.3    c0.09,0,0.19,0.02,0.28,0.03c0.11,0.02,0.2,0.02,0.27-0.11c0.06,0.25,0.13,0.5,0.19,0.75c-0.01,0-0.02,0.01-0.03,0.01    c-0.04-0.06-0.08-0.13-0.12-0.19c-0.1-0.16-0.22-0.29-0.38-0.38c-0.33-0.18-0.72,0-0.78,0.36c-0.03,0.22,0.05,0.4,0.23,0.51    c0.12,0.07,0.25,0.11,0.38,0.15c0.21,0.06,0.42,0.1,0.62,0.17c0.31,0.11,0.5,0.33,0.55,0.66c0.07,0.38-0.11,0.74-0.45,0.92    c-0.24,0.12-0.49,0.16-0.76,0.12c-0.03,0-0.06-0.01-0.1-0.02C69.95,27.47,69.94,27.47,69.81,27.61z" class="st26" />
		<path d="M73.62,62.68c-0.01-0.05-0.02-0.09-0.03-0.14c-0.04-0.17-0.09-0.34-0.19-0.49    c-0.11-0.15-0.25-0.24-0.44-0.25c-0.2-0.01-0.36,0.07-0.46,0.24c-0.1,0.18-0.11,0.37,0.01,0.53c0.08,0.11,0.19,0.2,0.3,0.28    c0.11,0.09,0.25,0.15,0.36,0.23c0.1,0.07,0.2,0.14,0.29,0.22c0.27,0.27,0.32,0.59,0.19,0.93c-0.13,0.35-0.41,0.53-0.78,0.55    c-0.27,0.02-0.52-0.06-0.76-0.2c-0.1-0.06-0.2-0.1-0.31,0.02c0.01-0.28,0.03-0.55,0.1-0.81c0.02,0.08,0.03,0.17,0.07,0.25    c0.06,0.15,0.12,0.3,0.21,0.43c0.11,0.17,0.28,0.24,0.48,0.26c0.28,0.02,0.54-0.19,0.58-0.48c0.04-0.28-0.03-0.52-0.27-0.69    c-0.11-0.08-0.23-0.16-0.34-0.24c-0.09-0.07-0.19-0.13-0.28-0.2c-0.25-0.21-0.32-0.48-0.23-0.79c0.14-0.48,0.65-0.72,1.11-0.51    c0.07,0.03,0.14,0.07,0.21,0.1c0.14,0.07,0.14,0.07,0.29-0.03c-0.02,0.27-0.04,0.52-0.06,0.77    C73.65,62.68,73.64,62.68,73.62,62.68z" class="st26" />
		<path d="M54.67,41.48c0,0.02,0.01,0.03,0.01,0.05c0.02,0.24,0.11,0.35,0.34,0.4c0.18,0.04,0.37,0.07,0.56,0.09    c0.4,0.05,0.8,0.11,1.2,0.16c0.08,0.01,0.17,0.01,0.25,0c0.21-0.03,0.35-0.14,0.43-0.34c0.08-0.22,0.1-0.44,0.06-0.67    c-0.04-0.21-0.17-0.37-0.36-0.47c-0.09-0.05-0.19-0.09-0.28-0.14c0.1-0.02,0.6,0.05,0.82,0.12c-0.11,0.82-0.22,1.64-0.34,2.46    c-0.01,0-0.02,0-0.03,0c0-0.03,0-0.05,0-0.08c-0.02-0.2-0.11-0.32-0.31-0.36c-0.17-0.04-0.35-0.06-0.52-0.09    c-0.48-0.07-0.96-0.13-1.44-0.19c-0.05-0.01-0.11-0.01-0.17-0.01c-0.16,0.01-0.27,0.09-0.33,0.23c-0.01,0.03-0.03,0.07-0.07,0.1    c0.06-0.42,0.11-0.83,0.17-1.25C54.65,41.48,54.66,41.48,54.67,41.48z" class="st26" />
		<path d="M86.67,30.48c-0.2,0.29-0.55,0.42-0.87,0.35c-0.49-0.1-1.1-0.63-1.17-1.23c-0.03-0.21,0-0.42,0.07-0.62    c0.15-0.43,0.43-0.76,0.82-0.98c0.55-0.3,1.07-0.19,1.56,0.13c0.21,0.14,0.36,0.34,0.5,0.54c0.09,0.13,0.1,0.13,0.26,0.12    c-0.03,0.11-0.34,0.57-0.52,0.76c0.01-0.07,0.02-0.12,0.03-0.16c0.05-0.17,0.09-0.34,0.09-0.52c0-0.54-0.49-0.93-1.03-0.81    c-0.1,0.02-0.19,0.05-0.28,0.09c-0.61,0.3-0.99,0.77-1.11,1.44c-0.1,0.57,0.4,1.16,0.98,1.18c0.17,0.01,0.32-0.06,0.46-0.15    C86.52,30.59,86.58,30.54,86.67,30.48z" class="st26" />
		<path d="M55.88,51.97c0.01,0.01,0.02,0.02,0.03,0.03c0.17,0.2,0.31,0.25,0.55,0.14c0.39-0.18,0.76-0.37,1.15-0.56    c0.15-0.07,0.3-0.15,0.45-0.21c0.23-0.1,0.45-0.07,0.66,0.07c0.08,0.06,0.17,0.13,0.23,0.21c0.22,0.26,0.36,0.56,0.43,0.89    c0.08,0.39-0.05,0.67-0.41,0.85c-0.44,0.23-0.89,0.44-1.33,0.67c-0.08,0.04-0.16,0.08-0.23,0.13c-0.19,0.12-0.23,0.24-0.18,0.47    c0,0.02,0,0.03-0.02,0.06c-0.19-0.38-0.37-0.75-0.56-1.13c0.27,0.25,0.36,0.27,0.7,0.11c0.47-0.23,0.94-0.46,1.41-0.7    c0.14-0.07,0.27-0.16,0.35-0.29c0.11-0.17,0.14-0.36,0.08-0.55c-0.09-0.26-0.24-0.47-0.45-0.64c-0.2-0.15-0.41-0.18-0.64-0.08    c-0.27,0.13-0.55,0.26-0.82,0.4c-0.21,0.1-0.43,0.21-0.64,0.32c-0.08,0.04-0.17,0.09-0.24,0.15c-0.12,0.1-0.17,0.23-0.14,0.38    c0.01,0.03,0.01,0.06,0,0.11c-0.13-0.26-0.26-0.53-0.39-0.79C55.87,51.97,55.87,51.97,55.88,51.97z" class="st26" />
		<path d="M69.85,63.45c-0.15,0.43-0.52,0.65-1,0.58c-0.31-0.04-0.59-0.16-0.83-0.35c-0.42-0.33-0.55-0.77-0.48-1.28    c0.05-0.35,0.19-0.67,0.43-0.94c0.33-0.38,0.77-0.5,1.26-0.45c0.3,0.03,0.57,0.14,0.81,0.32c0.04,0.03,0.07,0.05,0.11,0.08    c0.15,0.11,0.15,0.11,0.33,0.04c-0.09,0.3-0.17,0.59-0.26,0.87c-0.01,0-0.03,0-0.04-0.01c-0.01-0.09-0.01-0.17-0.02-0.26    c-0.01-0.18-0.05-0.35-0.13-0.51c-0.19-0.4-0.7-0.56-1.07-0.37c-0.09,0.04-0.18,0.09-0.25,0.15c-0.55,0.47-0.78,1.08-0.68,1.79    c0.08,0.55,0.68,0.94,1.23,0.83c0.2-0.04,0.35-0.15,0.47-0.31C69.76,63.57,69.8,63.51,69.85,63.45z" class="st26" />
		<path d="M81.34,60.69c0.1,0.28,0.2,0.56,0.3,0.86c-0.1-0.04-0.13-0.11-0.17-0.16c-0.13-0.17-0.28-0.31-0.48-0.4    c-0.35-0.16-0.78-0.05-1,0.27c-0.17,0.24-0.24,0.52-0.23,0.82c0.01,0.44,0.14,0.84,0.39,1.19c0.18,0.25,0.42,0.43,0.74,0.46    c0.37,0.04,0.69-0.08,0.94-0.35c0.12-0.13,0.16-0.29,0.17-0.46c0-0.08,0-0.16,0.01-0.25c0.07,0.23,0.05,0.46-0.08,0.67    c-0.07,0.1-0.16,0.2-0.26,0.28c-0.31,0.23-0.68,0.32-1.06,0.3c-0.44-0.02-0.78-0.24-1.01-0.6c-0.25-0.39-0.34-0.81-0.28-1.27    c0.05-0.33,0.21-0.6,0.47-0.81c0.31-0.26,0.67-0.39,1.08-0.4c0.07,0,0.13,0,0.2,0c0.11,0.01,0.2-0.01,0.22-0.16    C81.32,60.68,81.33,60.69,81.34,60.69z" class="st26" />
		<path d="M61.46,56.87c0.24-0.23,0.52-0.34,0.85-0.24c0.48,0.14,1.11,0.76,1.05,1.46c-0.01,0.15-0.04,0.3-0.1,0.43    c-0.26,0.57-0.68,0.94-1.31,1.06c-0.18,0.03-0.35,0.01-0.52-0.04c-0.44-0.13-0.78-0.38-1.01-0.78c-0.04-0.06-0.07-0.12-0.1-0.19    c-0.05-0.1-0.12-0.16-0.24-0.11c0.05-0.12,0.46-0.6,0.62-0.72c-0.04,0.11-0.07,0.19-0.1,0.27c-0.07,0.19-0.11,0.39-0.09,0.6    c0.03,0.36,0.4,0.75,0.88,0.71c0.17-0.01,0.34-0.05,0.5-0.12c0.57-0.27,0.98-0.7,1.12-1.33c0.14-0.67-0.47-1.18-0.91-1.21    c-0.17-0.01-0.32,0.04-0.46,0.12C61.57,56.8,61.52,56.84,61.46,56.87z" class="st26" />
		<path d="M56.53,44.96c0.39-0.02,0.67,0.14,0.83,0.5c0.19,0.42,0.19,0.86,0.02,1.29c-0.14,0.35-0.41,0.57-0.76,0.7    c-0.36,0.13-0.73,0.15-1.11,0.06c-0.55-0.14-0.87-0.52-1.02-1.05c-0.07-0.25-0.08-0.51-0.02-0.77c0.01-0.06,0.03-0.13,0.04-0.19    c0.03-0.14,0.02-0.16-0.11-0.27c0.31-0.06,0.6-0.09,0.89-0.12c0,0.01,0.01,0.02,0.01,0.04c-0.07,0.03-0.13,0.07-0.2,0.1    c-0.17,0.08-0.31,0.19-0.43,0.33c-0.32,0.37-0.2,0.89,0.09,1.15c0.23,0.2,0.51,0.31,0.81,0.35c0.4,0.05,0.78,0,1.15-0.17    c0.53-0.25,0.75-0.75,0.58-1.31c-0.09-0.31-0.29-0.51-0.62-0.58C56.64,44.99,56.58,44.97,56.53,44.96z" class="st26" />
		<path d="M92.93,45.81c-0.36-0.03-0.63-0.18-0.77-0.53c-0.13-0.31-0.12-0.64-0.05-0.96c0.15-0.61,0.6-1,1.22-1.03    c0.21-0.01,0.43,0,0.64,0.04c0.61,0.13,1.04,0.54,1.13,1.32c0.03,0.23-0.01,0.46-0.08,0.69c-0.01,0.04-0.03,0.08-0.04,0.12    c-0.06,0.18-0.06,0.18,0.04,0.35c-0.3,0-0.59,0-0.88,0c0-0.01-0.01-0.02-0.01-0.02c0.05-0.02,0.1-0.05,0.15-0.06    c0.17-0.06,0.33-0.13,0.47-0.24c0.42-0.33,0.39-0.93,0.06-1.24c-0.28-0.27-0.62-0.41-0.99-0.45c-0.28-0.03-0.55-0.02-0.82,0.06    c-0.61,0.18-0.93,0.71-0.78,1.32c0.07,0.29,0.24,0.48,0.51,0.58C92.8,45.76,92.86,45.78,92.93,45.81z" class="st26" />
		<path d="M91.81,47.87c0.03,0.35,0.16,0.45,0.51,0.38c0.17-0.03,0.35-0.07,0.52-0.1c0.06-0.01,0.11-0.04,0.13-0.11    c0.05-0.28,0.1-0.55,0.16-0.85c-0.22-0.13-0.42-0.29-0.67-0.39c-0.2-0.08-0.32-0.01-0.46,0.21c-0.02-0.12,0.08-0.67,0.16-0.85    c0.02,0.27,0.18,0.43,0.38,0.56c0.3,0.2,0.6,0.39,0.91,0.58c0.37,0.24,0.75,0.47,1.12,0.7c0.03,0.02,0.06,0.03,0.08,0.05    c0.02,0.02,0.05,0.06,0.06,0.09c0,0.05-0.04,0.07-0.09,0.08c-0.42,0.08-0.83,0.17-1.25,0.26c-0.42,0.09-0.83,0.17-1.25,0.26    c-0.01,0-0.02,0-0.03,0.01c-0.23,0.05-0.43,0.14-0.51,0.4C91.62,48.72,91.71,48.29,91.81,47.87z M93.02,48.09    c0.21,0,1.04-0.17,1.15-0.24c-0.33-0.2-0.64-0.4-0.99-0.61C93.12,47.54,93.07,47.81,93.02,48.09z" class="st26" />
		<path d="M81.93,28.46c0.06,0.01,0.1,0.02,0.14,0.03c0.18,0.03,0.33-0.07,0.34-0.25c0.03-0.26,0.03-0.53,0.04-0.8    c-0.3-0.13-0.58-0.26-0.88-0.39c-0.17,0.19-0.37,0.34-0.52,0.55c-0.12,0.18-0.1,0.32,0.05,0.47c0.02,0.02,0.03,0.03,0.03,0.07    c-0.27-0.12-0.53-0.23-0.8-0.35c0.32,0.03,0.53-0.16,0.73-0.35c0.54-0.53,1.07-1.07,1.61-1.6c0.05-0.05,0.08-0.14,0.17-0.11    c0.1,0.03,0.06,0.13,0.06,0.2c-0.01,0.75-0.03,1.49-0.04,2.24c0,0.08,0,0.15,0,0.23c-0.01,0.25,0.03,0.47,0.32,0.6    C83.03,28.99,82.06,28.57,81.93,28.46z M82.45,27.36c0.02-0.41,0.04-0.79,0.03-1.16c-0.01-0.01-0.02-0.01-0.03-0.02    c-0.26,0.27-0.53,0.53-0.81,0.82C81.92,27.13,82.17,27.24,82.45,27.36z" class="st26" />
		<path d="M65.67,29.49c-0.35,0.23-0.71,0.47-1.06,0.7c-0.01-0.01-0.01-0.01-0.02-0.02c0.02-0.02,0.04-0.04,0.05-0.06    c0.14-0.15,0.16-0.28,0.07-0.47c-0.04-0.07-0.08-0.15-0.13-0.21c-0.3-0.45-0.6-0.9-0.9-1.35c-0.04-0.06-0.08-0.12-0.13-0.17    c-0.14-0.17-0.27-0.2-0.48-0.13c-0.02,0.01-0.05,0.02-0.08,0c0.35-0.23,0.7-0.47,1.06-0.7c0.01,0.01,0.01,0.01,0.02,0.02    c-0.03,0.03-0.05,0.06-0.08,0.1c-0.1,0.12-0.12,0.25-0.06,0.39c0.04,0.09,0.08,0.17,0.13,0.25c0.3,0.46,0.61,0.92,0.91,1.38    c0.04,0.06,0.08,0.12,0.13,0.17c0.14,0.16,0.27,0.2,0.47,0.12c0.02-0.01,0.05-0.02,0.07-0.03C65.66,29.47,65.66,29.48,65.67,29.49    z" class="st26" />
		<path d="M94.11,38.31c-0.02-0.03-0.04-0.07-0.06-0.1c-0.1-0.14-0.24-0.2-0.4-0.16c-0.09,0.02-0.18,0.05-0.27,0.08    c-0.5,0.17-0.99,0.34-1.48,0.51c-0.09,0.03-0.18,0.07-0.26,0.11c-0.18,0.1-0.24,0.21-0.22,0.42c0,0.02,0,0.04-0.01,0.07    c-0.16-0.39-0.29-0.79-0.41-1.2c0.03,0.04,0.05,0.08,0.08,0.11c0.1,0.12,0.22,0.18,0.38,0.14c0.09-0.02,0.17-0.04,0.25-0.07    c0.52-0.18,1.03-0.36,1.55-0.54c0.07-0.02,0.13-0.05,0.2-0.08c0.19-0.09,0.26-0.21,0.24-0.42c0-0.03,0-0.05,0.02-0.09    c0.14,0.4,0.28,0.8,0.42,1.2C94.13,38.3,94.12,38.3,94.11,38.31z" class="st26" />
		<path d="M72.78,24.15c-0.28,0.11-0.37,0.23-0.33,0.52c0.06,0.53,0.13,1.05,0.19,1.58c0.01,0.1,0.03,0.21,0.05,0.31    c0.06,0.31,0.15,0.39,0.45,0.43c-0.09,0.05-0.93,0.17-1.22,0.17c0-0.01,0-0.02,0.01-0.02c0.26-0.12,0.33-0.24,0.3-0.54    c-0.04-0.37-0.09-0.74-0.14-1.12c-0.03-0.21-0.05-0.42-0.08-0.62c0-0.03-0.01-0.07-0.01-0.1c-0.06-0.31-0.14-0.39-0.45-0.45    C71.96,24.24,72.37,24.18,72.78,24.15z" class="st26" />
		<path d="M92.1,42.97c-0.05-0.41-0.09-0.82-0.14-1.22c0.01,0,0.01-0.01,0.02-0.01c0.01,0.02,0.03,0.05,0.04,0.07    c0.07,0.17,0.2,0.26,0.39,0.25c0.27-0.02,0.55-0.05,0.82-0.08c0.34-0.04,0.68-0.08,1.02-0.12c0.04-0.01,0.09-0.01,0.13-0.02    c0.25-0.03,0.41-0.15,0.43-0.42c0-0.01,0.01-0.02,0.03-0.03c0.05,0.42,0.1,0.83,0.14,1.25c-0.02-0.01-0.03-0.02-0.04-0.02    c-0.07-0.24-0.23-0.35-0.52-0.32c-0.61,0.07-1.22,0.14-1.83,0.21c-0.05,0.01-0.1,0.02-0.15,0.03c-0.18,0.04-0.29,0.15-0.32,0.34    c0,0.03-0.01,0.06-0.01,0.09C92.11,42.97,92.11,42.97,92.1,42.97z" class="st26" />
		<path d="M57.31,44.62c-0.01-0.04-0.02-0.09-0.03-0.13c-0.04-0.13-0.13-0.22-0.26-0.25    c-0.08-0.02-0.16-0.03-0.25-0.03c-0.57-0.01-1.14-0.02-1.7-0.03c-0.08,0-0.17,0-0.25,0.01c-0.17,0.03-0.29,0.13-0.33,0.3    c-0.01,0.03-0.01,0.05-0.02,0.08c-0.01,0-0.02,0-0.03,0c0.01-0.42,0.02-0.83,0.03-1.25c0.01,0,0.01,0,0.02,0    c0.01,0.02,0.02,0.05,0.02,0.07c0.04,0.2,0.17,0.3,0.36,0.33c0.05,0.01,0.1,0.01,0.15,0.01c0.58,0.01,1.16,0.02,1.74,0.03    c0.08,0,0.17,0,0.25-0.02c0.16-0.03,0.27-0.12,0.31-0.28c0.01-0.03,0.02-0.06,0.05-0.08c-0.01,0.42-0.02,0.83-0.03,1.25    C57.33,44.62,57.32,44.62,57.31,44.62z" class="st26" />
		<path d="M93.16,52.94c-0.18,0.35-0.35,0.71-0.54,1.07c-0.01-0.02-0.02-0.03-0.02-0.03c0.05-0.27,0.01-0.39-0.24-0.53    c-0.24-0.13-0.48-0.25-0.72-0.37c-0.29-0.14-0.57-0.29-0.86-0.43c-0.06-0.03-0.12-0.06-0.18-0.08c-0.24-0.09-0.36-0.06-0.52,0.14    c-0.01,0.01-0.02,0.03-0.02,0.04c-0.01-0.01-0.02-0.02-0.03-0.02c0.19-0.38,0.38-0.77,0.58-1.15c0.01,0,0.02,0.01,0.02,0.01    c0,0.01-0.01,0.03-0.01,0.04c-0.06,0.26-0.01,0.4,0.22,0.52c0.33,0.18,0.68,0.35,1.02,0.52c0.24,0.12,0.48,0.24,0.73,0.36    c0.12,0.06,0.25,0.09,0.38,0.03c0.07-0.04,0.12-0.09,0.18-0.14C93.15,52.93,93.15,52.93,93.16,52.94z" class="st26" />
		<path d="M85.68,60.84c-0.14,0.03-0.26,0.05-0.39,0.07c0,0.13,0,0.24,0,0.39c-0.11-0.09-0.2-0.17-0.29-0.25    c-0.09,0.08-0.18,0.16-0.29,0.26c0-0.14,0-0.27,0-0.4c-0.13-0.02-0.25-0.05-0.4-0.07c0.12-0.09,0.22-0.16,0.33-0.24    c-0.06-0.12-0.12-0.22-0.2-0.35c0.14,0.04,0.26,0.07,0.39,0.1c0.05-0.11,0.1-0.22,0.16-0.37c0.06,0.14,0.11,0.25,0.16,0.37    c0.12-0.03,0.23-0.06,0.38-0.1c-0.07,0.13-0.12,0.23-0.18,0.35C85.46,60.67,85.56,60.75,85.68,60.84z" class="st26" />
		<path d="M64.43,60.29c0.11,0.03,0.22,0.06,0.35,0.09c0.05-0.11,0.1-0.23,0.16-0.37c0.06,0.14,0.11,0.25,0.16,0.37    c0.12-0.03,0.24-0.06,0.39-0.1c-0.08,0.14-0.13,0.24-0.19,0.36c0.11,0.08,0.2,0.15,0.33,0.24c-0.15,0.03-0.27,0.05-0.4,0.07    c0,0.13,0,0.25,0,0.39c-0.11-0.09-0.2-0.17-0.3-0.26c-0.09,0.08-0.18,0.16-0.28,0.25c-0.05-0.13,0.01-0.25-0.03-0.38    c-0.11-0.02-0.23-0.05-0.38-0.07c0.12-0.09,0.22-0.16,0.33-0.24c-0.06-0.11-0.11-0.21-0.17-0.31    C64.41,60.31,64.42,60.3,64.43,60.29z" class="st26" />
		<path d="M83.43,62.77c0,0.14-0.12,0.25-0.26,0.24c-0.13,0-0.24-0.11-0.25-0.24c0-0.14,0.11-0.25,0.25-0.25    C83.31,62.52,83.43,62.64,83.43,62.77z" class="st26" />
		<path d="M70.7,64.47c-0.14,0-0.25-0.12-0.24-0.26c0.01-0.14,0.11-0.23,0.25-0.23c0.14,0,0.25,0.11,0.25,0.25    C70.96,64.36,70.84,64.47,70.7,64.47z" class="st26" />
		<path d="M78.92,64.23c0,0.14-0.11,0.25-0.25,0.24c-0.14,0-0.24-0.11-0.24-0.26c0-0.14,0.11-0.24,0.24-0.24    C78.81,63.98,78.92,64.09,78.92,64.23z" class="st26" />
		<path d="M74.96,64.62c0,0.14-0.11,0.25-0.26,0.24c-0.13,0-0.24-0.11-0.24-0.25c0-0.14,0.11-0.25,0.25-0.25    C74.86,64.37,74.96,64.48,74.96,64.62z" class="st26" />
		<path d="M88.42,45.88c-0.07,0.71-0.25,1.38-0.73,1.93c-0.26,0.3-0.58,0.51-0.97,0.6c-0.08,0.02-0.14,0.05-0.17,0.13    c-0.18,0.4-0.36,0.81-0.55,1.21c-0.01,0.02-0.01,0.04-0.03,0.09c0.05-0.03,0.07-0.04,0.09-0.06c0.34-0.29,0.66-0.58,1.01-0.86    c0.49-0.4,0.89-0.86,1.17-1.43c0.01-0.02,0.03-0.05,0.06-0.06c-0.01,0.03-0.01,0.07-0.02,0.1c-0.08,0.25-0.15,0.51-0.24,0.76    c-0.21,0.54-0.57,0.95-1.07,1.25c-0.3,0.18-0.62,0.32-0.95,0.42c-0.1,0.03-0.17,0.08-0.22,0.18c-0.21,0.39-0.43,0.77-0.65,1.16    c0,0,0,0.01,0.01,0.01c0,0,0.01,0,0.02,0c0.01,0,0.02-0.01,0.03-0.02c0.03-0.02,0.06-0.05,0.09-0.07    c0.64-0.51,1.27-1.01,1.91-1.52c0.09-0.08,0.18-0.17,0.26-0.25c0,0,0.01,0,0.03,0c-0.02,0.05-0.03,0.1-0.05,0.14    c-0.48,0.96-1.24,1.59-2.29,1.86c-0.08,0.02-0.15,0.05-0.2,0.13c-0.07,0.11-0.14,0.22-0.22,0.34c0.06,0.04,0.12,0.08,0.18,0.12    c0.05,0.04,0.1,0.08,0.17,0.12c0.59-0.39,1.12-0.85,1.66-1.3c-0.13,0.34-0.33,0.64-0.57,0.91c-0.25,0.27-0.53,0.49-0.86,0.66    c0,0.03,0,0.05,0,0.06c0.13,0.28,0.11,0.57,0,0.85c-0.29,0.75-0.57,1.51-0.85,2.26c-0.03,0.08-0.07,0.16-0.11,0.24    c-0.16,0.28-0.42,0.43-0.74,0.47c-0.33,0.03-0.64-0.02-0.94-0.15c-0.35-0.15-0.7-0.3-1.05-0.45c-0.19-0.08-0.21-0.07-0.31,0.1    c-0.05,0.09-0.1,0.18-0.16,0.29c0.08,0.05,0.15,0.11,0.23,0.16c0.11,0.07,0.22,0.14,0.33,0.22c0.1,0.07,0.16,0.16,0.14,0.28    c-0.06,0.35-0.19,0.67-0.45,0.92c-0.09,0.08-0.18,0.14-0.31,0.14c-0.13,0-0.23-0.05-0.34-0.12c-0.38-0.25-0.75-0.5-1.13-0.75    c-0.13-0.09-0.26-0.17-0.39-0.25c-0.51-0.34-0.66-0.69-0.53-1.29c0.07-0.31,0.17-0.62,0.27-0.92c0.03-0.11,0.07-0.22,0.11-0.33    c-0.04-0.03-0.08-0.06-0.12-0.08c-0.24-0.12-0.48-0.24-0.72-0.37c-0.09-0.05-0.14-0.03-0.22,0.03c-0.33,0.29-0.66,0.57-1,0.84    c-0.58,0.46-1.19,0.9-1.85,1.25c-0.44,0.24-0.29,0.24-0.73,0c-1.05-0.57-2-1.28-2.89-2.07c-0.1-0.09-0.18-0.11-0.3-0.04    c-0.22,0.12-0.45,0.23-0.68,0.35c-0.05,0.02-0.09,0.06-0.15,0.09c0.05,0.15,0.1,0.3,0.15,0.44c0.08,0.24,0.17,0.48,0.23,0.73    c0.08,0.31,0.06,0.61-0.07,0.91c-0.06,0.14-0.15,0.25-0.28,0.34c-0.58,0.39-1.17,0.78-1.75,1.17c-0.22,0.15-0.39,0.13-0.58-0.06    c-0.28-0.25-0.39-0.58-0.46-0.93c-0.02-0.11,0.03-0.19,0.12-0.25c0.15-0.1,0.31-0.2,0.46-0.3c0.04-0.02,0.07-0.05,0.13-0.09    c-0.09-0.16-0.18-0.31-0.28-0.48c-0.07,0.03-0.13,0.05-0.19,0.08c-0.3,0.13-0.59,0.27-0.89,0.4c-0.33,0.14-0.69,0.2-1.05,0.21    c-0.33,0.01-0.59-0.13-0.76-0.41c-0.06-0.09-0.11-0.19-0.15-0.3c-0.29-0.75-0.58-1.49-0.86-2.24c-0.11-0.3-0.12-0.6,0.03-0.9    c0.01-0.01,0.01-0.03,0.02-0.06c-0.63-0.35-1.08-0.87-1.37-1.53c0.53,0.43,1.04,0.88,1.62,1.26c0.12-0.08,0.24-0.16,0.37-0.24    c-0.08-0.13-0.16-0.25-0.25-0.36c-0.03-0.04-0.1-0.07-0.16-0.08c-1.04-0.27-1.8-0.89-2.28-1.84c-0.02-0.04-0.03-0.08-0.05-0.12    c0-0.01,0-0.02,0.01-0.05c0.71,0.71,1.56,1.24,2.33,1.87c-0.01-0.03-0.03-0.06-0.04-0.09c-0.21-0.36-0.41-0.72-0.62-1.08    c-0.05-0.08-0.1-0.13-0.19-0.16c-0.26-0.1-0.52-0.19-0.76-0.32c-0.64-0.31-1.09-0.81-1.32-1.48c-0.08-0.24-0.15-0.48-0.2-0.74    c0.02,0.03,0.04,0.05,0.06,0.08c0.28,0.55,0.67,1.01,1.14,1.4c0.35,0.29,0.69,0.59,1.03,0.89c0.02,0.01,0.03,0.03,0.07,0.06    c-0.01-0.05-0.02-0.08-0.03-0.11c-0.18-0.4-0.36-0.79-0.54-1.19c-0.03-0.07-0.07-0.11-0.14-0.13c-0.65-0.15-1.07-0.57-1.36-1.14    c-0.23-0.44-0.34-0.91-0.37-1.41c0.02,0.04,0.05,0.07,0.07,0.11c0.23,0.39,0.45,0.79,0.69,1.17c0.25,0.4,0.54,0.76,0.88,1.09    c0.02,0.02,0.05,0.05,0.07,0.07c0.01,0.01,0.02,0.01,0.04,0.01c-0.01-0.05-0.02-0.09-0.04-0.13c-0.14-0.41-0.28-0.82-0.42-1.24    c-0.03-0.09-0.07-0.15-0.17-0.18c-0.26-0.08-0.44-0.26-0.59-0.48c-0.22-0.32-0.36-0.69-0.43-1.07c-0.05-0.24-0.07-0.49-0.09-0.74    c-0.01-0.1,0.01-0.19,0.01-0.29c0.01,0,0.02,0,0.03-0.01c0.02,0.04,0.05,0.08,0.06,0.12c0.13,0.34,0.26,0.68,0.39,1.02    c0.15,0.4,0.33,0.8,0.56,1.16c0.03,0.04,0.06,0.09,0.11,0.12c-0.01-0.05-0.02-0.1-0.03-0.16c-0.1-0.46-0.2-0.92-0.3-1.37    c-0.03-0.11-0.07-0.22-0.11-0.33c-0.11-0.28-0.23-0.56-0.32-0.85c-0.15-0.43-0.15-0.88-0.11-1.33c0.02-0.21,0.04-0.41,0.09-0.62    c0.01,0.03,0.02,0.05,0.03,0.08c0.12,0.47,0.23,0.93,0.35,1.4c0.09,0.39,0.15,0.78,0.14,1.18c-0.01,0.26,0.03,0.5,0.09,0.75    c0.15,0.62,0.34,1.24,0.55,1.84c0.02,0.06,0.04,0.11,0.08,0.16c-0.16-1.12-0.37-2.22-0.44-3.36c0.02,0.03,0.05,0.06,0.07,0.1    c0.32,0.57,0.5,1.19,0.58,1.84c0.06,0.55,0.04,1.1-0.1,1.64c-0.01,0.05-0.01,0.11,0.01,0.16c0.17,0.4,0.34,0.8,0.52,1.2    c0.01,0.01,0.02,0.02,0.04,0.05c0.01-0.05,0.02-0.08,0.02-0.1c-0.03-0.64-0.08-1.28-0.1-1.92c-0.02-0.51-0.01-1.03-0.01-1.54    c0-0.02,0.01-0.04,0.02-0.09c0.04,0.06,0.06,0.09,0.08,0.12c0.22,0.45,0.34,0.92,0.38,1.42c0.05,0.74-0.02,1.47-0.3,2.16    c-0.02,0.06-0.04,0.11,0,0.17c0.21,0.39,0.42,0.78,0.63,1.17c0.01,0.01,0.02,0.02,0.06,0.05c0.01-0.09,0.02-0.15,0.03-0.22    c0.05-0.65-0.01-1.3-0.01-1.96c-0.01-0.44,0.01-0.87,0.02-1.31c0-0.01,0.01-0.02,0.02-0.04c0.02,0.03,0.04,0.05,0.05,0.08    c0.28,0.61,0.43,1.24,0.37,1.91c-0.04,0.48-0.16,0.94-0.35,1.37c-0.08,0.19-0.08,0.33,0.04,0.5c0.2,0.28,0.39,0.58,0.58,0.87    c0.02,0.03,0.04,0.06,0.06,0.08c0.04,0.04,0.1,0.03,0.11-0.03c0.01-0.03,0-0.07,0-0.1c-0.01-0.82-0.02-1.65-0.04-2.47    c0-0.2,0-0.4,0.02-0.6c0.22,0.49,0.39,1,0.42,1.54c0.04,0.55-0.09,1.07-0.26,1.62c0.22-0.03,0.42-0.06,0.62-0.08    c0-0.42,0-0.83,0-1.24c0.1,0.08,0.17,0.24,0.27,0.59c0.06,0.21,0.09,0.42,0.13,0.64c0.2,0.02,0.41,0.04,0.62,0.07    c0.49,0.07,0.95,0.22,1.37,0.47c0.2,0.12,0.36,0.11,0.55-0.02c0.2-0.14,0.42-0.26,0.65-0.4c-2.38-2.81-3.88-6.02-4.55-9.62    c-0.27-1.44-0.39-2.9-0.38-4.36c0.13-0.04,20.09-0.05,20.35-0.02c0.09,0.28-0.02,2.19-0.25,3.77c-0.18,1.26-0.49,2.49-0.92,3.69    c-0.42,1.2-0.95,2.34-1.59,3.44c-0.64,1.1-1.38,2.12-2.21,3.1c0.05,0.03,0.08,0.06,0.12,0.09c0.16,0.1,0.33,0.19,0.48,0.29    c0.19,0.13,0.37,0.13,0.58,0.04c0.27-0.13,0.54-0.25,0.82-0.34c0.36-0.13,0.74-0.17,1.12-0.18c0.04,0,0.09,0,0.15,0    c0.03-0.44,0.15-0.85,0.37-1.24c0.05,0.42,0.01,0.83,0.01,1.25c0.21,0.04,0.41,0.08,0.64,0.12c-0.17-0.54-0.31-1.07-0.28-1.63    c0.03-0.55,0.21-1.07,0.42-1.58c0.03,0.21,0.02,0.43,0.02,0.64c0,0.22,0,0.43,0,0.65c0,0.22,0,0.44,0,0.66    c0,0.22-0.01,0.43-0.01,0.65c0,0.22-0.05,0.43-0.02,0.68c0.05-0.03,0.08-0.05,0.1-0.07c0.25-0.37,0.49-0.75,0.74-1.12    c0.05-0.07,0.03-0.13,0-0.2c-0.15-0.37-0.28-0.74-0.35-1.14c-0.15-0.82-0.01-1.59,0.35-2.33c0-0.01,0.02-0.01,0.04-0.03    c0.01,0.05,0.01,0.09,0.02,0.13c0.06,0.71,0,1.42-0.01,2.14c0,0.38,0.01,0.76,0.02,1.14c0,0.03,0.01,0.06,0.02,0.13    c0.05-0.06,0.08-0.1,0.1-0.14c0.18-0.33,0.36-0.67,0.54-1.01c0.06-0.11,0.06-0.2,0.02-0.33c-0.38-1.05-0.41-2.12-0.04-3.18    c0.05-0.15,0.12-0.29,0.19-0.44c0.01,0,0.02,0,0.04,0.01c0.01,0.03,0.02,0.07,0.02,0.1c0.03,0.71,0,1.41-0.05,2.12    c-0.03,0.45-0.05,0.89-0.07,1.34c0,0.02,0.01,0.04,0.01,0.09c0.03-0.05,0.05-0.07,0.06-0.1c0.16-0.37,0.32-0.75,0.49-1.12    c0.04-0.09,0.04-0.18,0.02-0.27c-0.27-1.22-0.07-2.37,0.52-3.46c0.01-0.02,0.03-0.04,0.06-0.05c-0.08,1.13-0.29,2.24-0.44,3.36    c0.02-0.05,0.04-0.1,0.06-0.15c0.25-0.71,0.46-1.44,0.63-2.18c0.01-0.05,0.02-0.1,0.02-0.15c-0.03-0.66,0.08-1.3,0.26-1.93    c0.08-0.3,0.15-0.6,0.22-0.9c0.01-0.04,0.02-0.08,0.06-0.12c0.01,0.09,0.02,0.18,0.03,0.27c0.04,0.42,0.09,0.85,0.02,1.27    c-0.05,0.31-0.13,0.61-0.26,0.89c-0.19,0.4-0.3,0.82-0.37,1.25c-0.05,0.3-0.14,0.59-0.21,0.89c-0.01,0.04-0.01,0.07-0.01,0.11    c0.53-0.74,0.74-1.62,1.14-2.43c0.01,0.03,0.02,0.07,0.02,0.1c0.03,0.66-0.11,1.29-0.43,1.86c-0.17,0.3-0.39,0.54-0.73,0.63    c-0.07,0.02-0.08,0.08-0.1,0.14c-0.13,0.38-0.25,0.75-0.38,1.13c-0.03,0.08-0.06,0.16-0.08,0.25    C87.45,47.65,87.9,46.74,88.42,45.88z M82.93,54.93c0-0.01,0-0.03,0.01-0.04c0.05,0.01,0.09,0.01,0.14,0.02    c0.15,0.03,0.29,0.07,0.43,0.1c0.27,0.06,0.54,0.11,0.82,0.05c0.03-0.01,0.06-0.02,0.1-0.04c-0.39-0.08-0.77-0.14-1.14-0.29    c0.2,0.02,0.39,0.06,0.59,0.08c0.2,0.02,0.4,0.05,0.6-0.03c-0.39-0.11-0.8-0.15-1.18-0.31c0.26,0.03,0.53,0.07,0.79,0.1    c0.14,0.02,0.28,0.02,0.41,0.02c0.06,0,0.13-0.01,0.15-0.11c-0.44-0.04-0.87-0.08-1.28-0.25c0.13,0.01,0.26,0.02,0.39,0.04    c0.28,0.04,0.56,0.08,0.84,0.11c0.04,0.01,0.1,0.03,0.15-0.05c-0.39-0.1-0.77-0.19-1.14-0.29c0.05-0.02,0.09-0.02,0.14-0.01    c0.31,0.04,0.61,0.07,0.92,0.11c0.16,0.02,0.22-0.02,0.27-0.18c-0.15-0.05-0.3-0.04-0.46-0.05c-0.39-0.01-0.77-0.08-1.14-0.21    c-0.48-0.17-0.94-0.39-1.38-0.64c-0.77-0.44-1.55-0.88-2.32-1.32c-1.38-0.78-2.85-1.26-4.45-1.33c-1.1-0.05-2.17,0.09-3.22,0.4    c-1.02,0.3-1.96,0.77-2.86,1.32c-0.43,0.26-0.86,0.52-1.3,0.77c-0.65,0.37-1.32,0.69-2.04,0.91c-0.37,0.12-0.75,0.17-1.14,0.06    c-0.02-0.01-0.05,0-0.08,0c0.01,0.2,0.08,0.28,0.27,0.28c0.38,0,0.76-0.07,1.13-0.16c0.05-0.01,0.1-0.02,0.14-0.02    c0,0.01,0,0.03,0.01,0.04c-0.43,0.1-0.85,0.19-1.28,0.29c0,0.01,0,0.03,0,0.04c0.16,0,0.31,0.01,0.47,0    c0.15-0.01,0.31-0.03,0.46-0.05c0.15-0.02,0.3-0.06,0.45-0.09c0,0.01,0,0.02,0.01,0.04c-0.45,0.1-0.89,0.21-1.34,0.31    c0,0.01,0,0.03,0.01,0.04c0.48,0.08,0.95-0.07,1.42-0.13c-0.44,0.13-0.89,0.21-1.33,0.34c0.43,0.1,0.85-0.02,1.27-0.08    c-0.07,0.03-0.13,0.06-0.2,0.08c-0.28,0.06-0.56,0.11-0.84,0.17c-0.03,0.01-0.06,0.02-0.09,0.03c0.23,0.05,0.46,0.06,0.68,0.03    c0.22-0.03,0.44-0.07,0.65-0.1c0,0.01,0,0.02,0.01,0.04c-0.42,0.09-0.84,0.19-1.27,0.28c0.15,0.07,0.3,0.07,0.44,0.05    c0.24-0.03,0.48-0.07,0.72-0.11c0.05-0.01,0.1-0.04,0.17,0.02c-0.45,0.09-0.87,0.18-1.29,0.26c0.45,0.13,0.88,0.01,1.31-0.05    c-0.37,0.16-0.76,0.22-1.15,0.3c0.48,0.09,0.94-0.01,1.41-0.1c-0.44,0.13-0.9,0.2-1.35,0.32c0.09,0.11,0.19,0.15,0.31,0.16    c0.12,0.01,0.24,0.01,0.36,0.01c0.2,0.01,0.39-0.02,0.56-0.11c0.47-0.22,0.95-0.41,1.39-0.65c0.62-0.34,1.23-0.72,1.84-1.09    c0.52-0.32,1.04-0.63,1.6-0.87c0.74-0.32,1.52-0.52,2.33-0.61c0.86-0.09,1.71-0.05,2.55,0.13c0.99,0.21,1.91,0.59,2.77,1.1    c1.01,0.59,2.02,1.18,3.03,1.78c0.23,0.13,0.47,0.24,0.73,0.3c0.28,0.06,0.56,0.08,0.84,0.02c0.1-0.02,0.2-0.06,0.26-0.18    c-0.25-0.06-0.49-0.11-0.72-0.16c-0.23-0.06-0.47-0.09-0.69-0.18c0.06-0.01,0.12,0,0.18,0.01c0.15,0.03,0.29,0.07,0.43,0.11    c0.27,0.06,0.54,0.11,0.82,0.05c0.03-0.01,0.06-0.03,0.1-0.04c-0.48-0.08-0.95-0.16-1.38-0.37c0.43,0.06,0.85,0.13,1.28,0.2    c0.09,0.02,0.17,0,0.26-0.07c-0.05-0.01-0.07-0.02-0.1-0.03c-0.4-0.08-0.79-0.15-1.19-0.23c-0.04-0.01-0.1,0-0.13-0.08    c0.48,0.1,0.93,0.21,1.41,0.12C83.85,55.12,83.38,55.05,82.93,54.93z M70.33,41.38c0,0.27,0,0.54,0,0.81    c0,0.11-0.01,0.21,0.08,0.3c0.02,0.03,0.03,0.08,0.03,0.12c0,1.23,0,2.46,0,3.7c0,0.05-0.01,0.1-0.04,0.14    c-0.06,0.08-0.07,0.16-0.07,0.25c0,0.29-0.01,0.57,0,0.86c0.02,0.49-0.17,0.88-0.52,1.2c-0.09,0.09-0.2,0.14-0.33,0.13    c-0.13,0-0.25-0.01-0.38,0c-0.05,0-0.12,0.03-0.14,0.07c-0.09,0.14,0,0.29,0.17,0.29c0.02,0,0.03,0,0.05,0c0.91,0,1.82,0,2.74,0    c0.04,0,0.09,0.01,0.13,0c0.04-0.01,0.09-0.03,0.1-0.07c0.08-0.14-0.01-0.28-0.17-0.29c-0.13,0-0.25,0-0.38,0    c-0.1,0-0.18-0.03-0.26-0.09c-0.35-0.31-0.57-0.68-0.57-1.17c0-0.31,0-0.62,0-0.93c0-0.07,0-0.15-0.04-0.21    c-0.06-0.09-0.06-0.17-0.06-0.27c0-1.15,0-2.31,0-3.46c0-0.13-0.02-0.26,0.08-0.38c0.03-0.03,0.02-0.09,0.02-0.14    c0-0.16,0-0.32,0-0.48c0-0.04,0.01-0.08,0.01-0.14c0.16,0.09,0.26,0.21,0.36,0.34c0.13,0.18,0.25,0.36,0.39,0.53    c0.18,0.23,0.38,0.43,0.72,0.4c-0.01,0.04-0.01,0.07-0.01,0.1c-0.25,1.22-0.5,2.43-0.76,3.65c-0.05,0.25,0.02,0.45,0.2,0.61    c0.26,0.25,0.58,0.32,0.92,0.26c0.29-0.05,0.52-0.21,0.66-0.48c0.06-0.11,0.08-0.22,0.05-0.35c-0.07-0.31-0.13-0.63-0.2-0.94    c-0.2-0.96-0.39-1.91-0.59-2.87c-0.02-0.08,0-0.13,0.05-0.19c0.07-0.1,0.14-0.21,0.18-0.33c0.08-0.26,0-0.49-0.19-0.68    c-0.11-0.11-0.22-0.1-0.32,0c-0.1,0.1-0.12,0.22-0.07,0.35c0.02,0.07,0.06,0.13,0.07,0.2c0.01,0.05-0.01,0.12-0.04,0.15    c-0.05,0.05-0.12,0.02-0.16-0.03c-0.09-0.1-0.18-0.19-0.25-0.3c-0.11-0.16-0.2-0.33-0.3-0.5c-0.16-0.26-0.35-0.49-0.62-0.66    c-0.07-0.04-0.08-0.09-0.08-0.16c0-0.17,0.01-0.33,0-0.5c0-0.09-0.02-0.19-0.06-0.27c-0.03-0.08-0.04-0.15,0.01-0.23    c0.08-0.13,0.06-0.27-0.02-0.39c-0.09-0.14-0.22-0.14-0.3-0.01c-0.08,0.12-0.1,0.26-0.02,0.39c0.05,0.09,0.05,0.16,0.01,0.25    c-0.03,0.08-0.04,0.17-0.05,0.26c-0.01,0.12,0,0.24,0,0.38c-0.06-0.02-0.1-0.03-0.15-0.05c-0.24-0.08-0.47-0.04-0.67,0.11    c-0.04,0.03-0.09,0.07-0.13,0.1c-0.13,0.09-0.28,0.08-0.4-0.01c-0.11-0.08-0.14-0.21-0.08-0.37c0.06-0.15,0.07-0.31,0.05-0.47    c-0.02-0.14-0.12-0.26-0.23-0.27c-0.14-0.01-0.21,0.08-0.27,0.19c-0.01,0.01-0.01,0.02-0.01,0.03c-0.12,0.28-0.12,0.54,0.06,0.8    c0.14,0.21,0.21,0.44,0.15,0.7c-0.27,1.3-0.54,2.61-0.81,3.91c-0.05,0.23,0.01,0.42,0.16,0.58c0.3,0.31,0.67,0.37,1.07,0.26    c0.25-0.07,0.43-0.22,0.55-0.45c0.06-0.11,0.07-0.22,0.05-0.35c-0.27-1.27-0.53-2.54-0.79-3.81c-0.01-0.05-0.02-0.11-0.03-0.19    c0.23,0.12,0.45,0.1,0.66,0.03c0.06-0.02,0.12-0.03,0.17-0.06C69.91,41.18,70.12,41.23,70.33,41.38z M81.57,39.58    c-0.23,0.1-0.46,0.14-0.69,0.16c-0.14,0.01-0.27,0.03-0.41,0.06c-0.29,0.05-0.56,0.17-0.79,0.37c-0.13,0.11-0.2,0.25-0.2,0.43    c0.01,0.41,0,0.82,0,1.23c0,0.05,0,0.11,0,0.16c0.03-0.01,0.04-0.01,0.05-0.02c0.15-0.24,0.38-0.38,0.64-0.48    c0.3-0.12,0.61-0.18,0.93-0.23c0.26-0.04,0.51-0.09,0.76-0.14c0.08-0.02,0.15-0.06,0.22-0.09C81.91,40.54,81.75,40.07,81.57,39.58    z M76.83,41.03c0.09,0.04,0.16,0.08,0.24,0.09c0.25,0.05,0.5,0.1,0.75,0.13c0.35,0.05,0.7,0.12,1.02,0.26    c0.17,0.08,0.32,0.17,0.45,0.31c0.04,0.05,0.08,0.1,0.13,0.17c0-0.08,0.01-0.13,0.01-0.17c0-0.42-0.01-0.84,0-1.26    c0-0.15-0.05-0.27-0.15-0.37c-0.07-0.06-0.14-0.12-0.22-0.18c-0.25-0.17-0.54-0.23-0.84-0.27c-0.21-0.03-0.43-0.06-0.64-0.1    c-0.08-0.01-0.15-0.05-0.24-0.08C77.18,40.07,77.01,40.54,76.83,41.03z M77.67,48.59c-0.01,0-0.02,0-0.03,0    c-0.03,0.04-0.09,0.07-0.09,0.11c-0.01,0.14,0,0.28,0,0.42c0.19,0.04,2.95,0.04,3.08-0.01c0-0.13,0-0.27,0-0.41    c0-0.02,0-0.05-0.02-0.06c-0.07-0.05-0.06-0.13-0.06-0.2c0-0.13,0-0.26,0-0.4c0-0.08,0.01-0.14,0.06-0.21    c0.09-0.11,0.04-0.19-0.09-0.19c-0.02,0-0.04,0-0.07,0c-0.92,0-1.83,0-2.75,0c-0.05,0-0.11,0-0.16,0    c-0.04,0.15-0.04,0.17,0.05,0.24c0.05,0.03,0.06,0.07,0.06,0.12C77.67,48.2,77.67,48.4,77.67,48.59z M80.89,57.07    c0.01,0.01,0.01,0.01,0.02,0.02c-0.07,0.1-0.13,0.21-0.21,0.33c0.17,0.04,0.25-0.07,0.37-0.14c-0.04,0.13-0.18,0.19-0.17,0.36    c0.15-0.09,0.28-0.17,0.41-0.25c-0.01,0.05-0.02,0.09-0.04,0.14c0.01,0.01,0.02,0.01,0.03,0.02c0.07-0.08,0.15-0.15,0.2-0.24    c0.07-0.12,0.13-0.26,0.18-0.39c0.07-0.19,0.03-0.26-0.14-0.38c-0.47-0.31-0.93-0.61-1.4-0.91c-0.04-0.03-0.09-0.05-0.15-0.09    c-0.15,0.38-0.24,0.79-0.63,1.03c0.1,0.05,0.19,0.04,0.26,0c0.07-0.05,0.13-0.12,0.2-0.18c0.04-0.04,0.06-0.1,0.16-0.12    c-0.13,0.17-0.23,0.31-0.35,0.48c0.29,0.01,0.39-0.21,0.54-0.35c-0.08,0.14-0.17,0.28-0.25,0.41c-0.02,0.03-0.02,0.06-0.02,0.09    c0.01,0.01,0.02,0.01,0.03,0.02c0.14-0.11,0.27-0.22,0.41-0.33c0,0.01,0.01,0.01,0.01,0.02c-0.1,0.14-0.2,0.27-0.31,0.42    c0.28,0.03,0.36-0.21,0.54-0.31c-0.09,0.14-0.19,0.27-0.3,0.43c0.27,0.01,0.35-0.2,0.5-0.32c-0.04,0.09-0.09,0.16-0.14,0.24    c-0.04,0.08-0.14,0.14-0.11,0.28C80.64,57.25,80.76,57.16,80.89,57.07z M68.45,56.93c0.01-0.01,0.02-0.02,0.03-0.03    c0.16,0.15,0.29,0.37,0.59,0.36c-0.15-0.17-0.27-0.32-0.4-0.47c0.18,0.12,0.29,0.33,0.58,0.33c-0.12-0.17-0.25-0.29-0.33-0.44    c0.15,0.13,0.27,0.3,0.51,0.28c-0.11-0.13-0.21-0.25-0.32-0.38c0.2,0.07,0.33,0.22,0.51,0.31c0.01-0.01,0.02-0.02,0.03-0.03    c-0.1-0.13-0.19-0.25-0.29-0.38c0.18,0.07,0.29,0.25,0.52,0.26c-0.07-0.14-0.2-0.22-0.26-0.36c0.39,0.22,0.39,0.22,0.5,0.17    c-0.36-0.24-0.48-0.62-0.6-1.02c-0.04,0.02-0.08,0.03-0.11,0.05c-0.45,0.3-0.89,0.59-1.34,0.89c-0.06,0.04-0.12,0.09-0.17,0.13    c-0.1,0.1-0.13,0.21-0.08,0.35c0.08,0.21,0.19,0.4,0.35,0.56c0.07,0.07,0.14,0.12,0.28,0.13c-0.14-0.15-0.29-0.25-0.36-0.45    c0.39,0.35,0.39,0.35,0.56,0.29c-0.13-0.14-0.26-0.28-0.39-0.42c0.01-0.01,0.02-0.02,0.03-0.03c0.18,0.14,0.3,0.38,0.62,0.37    C68.71,57.23,68.58,57.08,68.45,56.93z M80.06,46.2c-0.13-0.17-0.24-0.34-0.37-0.48c-0.14-0.15-0.35-0.2-0.55-0.23    c-0.02-0.11-0.03-0.21-0.05-0.33c-0.01,0.12-0.03,0.23-0.04,0.33c-0.03,0.01-0.04,0.01-0.06,0.02c-0.37,0.05-0.63,0.25-0.78,0.59    c-0.02,0.05-0.06,0.09-0.09,0.13c0.04,0.07,0.04,0.13-0.01,0.2c-0.07,0.11-0.04,0.17,0.09,0.18c0.03,0,0.06,0,0.08,0    c0.54,0,1.07,0,1.61,0c0.04,0,0.08,0,0.12,0c0.1-0.02,0.13-0.08,0.07-0.16C80.01,46.36,80.02,46.29,80.06,46.2z M78.33,47.56    c0-0.07,0-0.13,0-0.18c0-0.07,0-0.14,0-0.22c0-0.05,0-0.09,0.06-0.1c0.07,0,0.07,0.06,0.07,0.1c0,0.04,0,0.08,0,0.12    c0,0.08,0,0.15,0.01,0.23c0,0.01,0.01,0.03,0.03,0.05c0.05,0,0.09-0.01,0.16-0.01c0-0.11,0-0.21,0-0.31c0-0.04,0-0.09,0.01-0.13    c0-0.02,0.04-0.05,0.05-0.05c0.03,0.01,0.06,0.03,0.07,0.05c0.01,0.05,0.01,0.11,0.01,0.16c0,0.09,0.01,0.18,0.01,0.28    c0.07,0,0.12-0.01,0.18-0.01c0-0.11,0-0.21,0-0.31c0-0.04,0-0.09,0.01-0.13c0.01-0.02,0.04-0.05,0.07-0.05    c0.01,0,0.04,0.03,0.05,0.05c0.01,0.04,0.01,0.08,0.01,0.12c0,0.1,0,0.21,0,0.32c0.07,0,0.12,0,0.19,0c0-0.14,0-0.26,0-0.39    c0-0.04,0-0.1,0.06-0.1c0.07,0,0.07,0.05,0.07,0.1c0,0.03,0,0.06,0,0.08c0,0.1,0,0.2,0,0.31c0.07,0,0.12-0.01,0.19-0.01    c0-0.09,0-0.17,0-0.25c0-0.06,0-0.12,0.01-0.18c0-0.02,0.04-0.06,0.06-0.06c0.02,0,0.05,0.03,0.06,0.06    c0.01,0.04,0,0.08,0.01,0.12c0,0.1,0.01,0.21,0.01,0.31c0.07,0,0.11,0,0.18,0c0-0.12,0-0.23,0-0.34c0-0.06-0.02-0.14,0.06-0.15    c0.1-0.01,0.07,0.09,0.08,0.15c0.01,0.11,0.01,0.23,0.01,0.34c0.09,0,0.15,0,0.23,0c0-0.16,0-0.31,0-0.46    c0.21-0.09,0.22-0.1,0.18-0.27c-0.97,0-1.95,0-2.94,0c0,0.05-0.01,0.11,0.01,0.13c0.05,0.06,0.11,0.09,0.19,0.15    c0,0.14,0,0.29,0,0.45c0.07,0,0.13,0,0.19,0c0-0.05,0.01-0.09,0.01-0.12c0-0.09,0-0.19,0-0.28c0-0.05,0.01-0.09,0.07-0.09    c0.06,0,0.06,0.05,0.07,0.09c0,0.03,0,0.07,0,0.1c0,0.1,0,0.2,0,0.3C78.21,47.56,78.26,47.56,78.33,47.56z M75.02,50.26    c0-0.08,0-0.13,0-0.19c-0.01-0.44-0.04-0.87-0.04-1.31c-0.01-1.65-0.01-3.29,0-4.94c0.01-1.3,0.08-2.61,0.28-3.9    c0.08-0.52,0.19-1.04,0.36-1.55c0.02-0.06,0.04-0.11,0.07-0.17c0.05,0.03,0.09,0.06,0.13,0.07c0.1,0.04,0.2,0.01,0.27-0.07    c0.06-0.07,0.08-0.16,0.04-0.25c-0.05-0.1-0.13-0.15-0.24-0.14c-0.1,0.01-0.17,0.06-0.2,0.15c-0.07,0.16-0.14,0.32-0.2,0.49    c-0.18,0.54-0.28,1.1-0.36,1.67c-0.14,1.01-0.22,2.02-0.23,3.04c-0.02,2.04-0.01,4.09,0,6.13c0,0.27,0.02,0.54,0.03,0.81    C74.92,50.17,74.9,50.23,75.02,50.26z M73.88,38.21c0.02,0.06,0.05,0.11,0.06,0.16c0.07,0.23,0.15,0.46,0.2,0.7    c0.24,1.03,0.34,2.07,0.39,3.12c0.04,0.9,0.05,1.81,0.05,2.72c0,1.73,0.04,3.47-0.04,5.2c0,0.05,0.01,0.09,0.01,0.15    c0.11-0.02,0.09-0.09,0.09-0.14c0.01-0.29,0.03-0.59,0.03-0.88c0.01-1.56,0.01-3.12,0.01-4.68c0-1.01-0.02-2.02-0.1-3.03    c-0.06-0.72-0.13-1.44-0.27-2.15c-0.09-0.43-0.19-0.86-0.37-1.27c-0.03-0.07-0.06-0.13-0.1-0.19c-0.08-0.1-0.23-0.12-0.33-0.04    c-0.1,0.07-0.13,0.19-0.07,0.29c0.06,0.12,0.19,0.16,0.31,0.11C73.8,38.26,73.83,38.24,73.88,38.21z M82.49,43.93    c0-0.02-0.01-0.03-0.01-0.05c-0.06,0-0.13-0.01-0.19-0.01c-1.88,0-3.77,0-5.65,0c-0.04,0-0.09,0-0.13,0    c-0.03,0-0.05,0.02-0.08,0.04c0.06,0.09,0.14,0.06,0.2,0.06c1.89,0,3.78,0,5.67,0c0.04,0,0.09,0,0.13,0    C82.45,43.97,82.47,43.95,82.49,43.93z M79.97,41.83c0,0.01,0.01,0.02,0.01,0.03c0.05-0.01,0.09-0.02,0.14-0.03    c0.35-0.12,0.72-0.17,1.09-0.16c0.2,0,0.41-0.01,0.61-0.03c0.13-0.01,0.26-0.05,0.39-0.07c0-0.12-0.01-0.2-0.08-0.28    c-0.38,0.13-0.77,0.17-1.15,0.22c-0.3,0.04-0.59,0.12-0.87,0.26C80.06,41.77,80.02,41.8,79.97,41.83z M78.94,41.86    c0-0.01,0.01-0.02,0.01-0.03c-0.04-0.03-0.09-0.05-0.14-0.08c-0.3-0.14-0.62-0.23-0.95-0.27c-0.34-0.04-0.68-0.08-1.01-0.19    c-0.02-0.01-0.05-0.01-0.09-0.02c-0.02,0.09-0.05,0.17-0.07,0.27c0.08,0.02,0.14,0.04,0.2,0.05c0.3,0.03,0.59,0.06,0.89,0.06    c0.31,0.01,0.62,0.04,0.91,0.13C78.78,41.82,78.86,41.83,78.94,41.86z M80.11,42.01c0.06,0,0.08,0,0.1,0    c0.3-0.04,0.59-0.06,0.89-0.02c0.19,0.03,0.38,0.06,0.57,0.09c0.21,0.02,0.42,0.03,0.63-0.04c-0.01-0.1-0.03-0.19-0.04-0.29    c-0.09,0.02-0.16,0.03-0.23,0.04c-0.31,0.01-0.62,0.03-0.93,0.03c-0.3,0-0.58,0.05-0.86,0.13C80.21,41.96,80.18,41.98,80.11,42.01    z M78.78,42c-0.02-0.01-0.04-0.03-0.06-0.03c-0.26-0.08-0.53-0.14-0.81-0.14c-0.24,0-0.48,0-0.71-0.01    c-0.17-0.01-0.35-0.04-0.53-0.06c-0.05,0.09-0.05,0.19-0.03,0.29c0.28,0.08,0.55,0.06,0.81,0C77.89,41.96,78.33,41.94,78.78,42z     M75.23,52.93c-0.01,0.01-0.01,0.02-0.01,0.02c0.08,0.52,0.21,1.02,0.43,1.5c0.02,0.04,0.04,0.08,0.07,0.11    c0.09,0.1,0.22,0.12,0.33,0.05c0.1-0.07,0.13-0.2,0.07-0.31c-0.06-0.11-0.19-0.15-0.32-0.1c-0.04,0.02-0.07,0.04-0.13,0.07    c-0.09-0.3-0.17-0.58-0.24-0.86c-0.04-0.14-0.07-0.29-0.1-0.44C75.31,52.94,75.3,52.91,75.23,52.93z M74.33,52.89    c-0.04,0.03-0.07,0.04-0.08,0.07c-0.02,0.05-0.02,0.11-0.04,0.16c-0.09,0.33-0.18,0.66-0.27,0.99c-0.02,0.06-0.04,0.11-0.07,0.17    c-0.04-0.03-0.06-0.04-0.08-0.06c-0.14-0.07-0.27-0.04-0.34,0.09c-0.06,0.11-0.03,0.24,0.08,0.31c0.12,0.08,0.26,0.05,0.34-0.08    c0.04-0.06,0.06-0.12,0.09-0.18c0.19-0.44,0.3-0.91,0.39-1.39C74.35,52.96,74.34,52.94,74.33,52.89z M80.22,46.76    c0.02-0.07,0.02-0.12-0.06-0.13c-0.02,0-0.04,0-0.07,0c-0.67,0-1.34,0-2.01,0c-0.03,0-0.07-0.01-0.1,0.01    c-0.02,0.01-0.04,0.04-0.05,0.07c0,0.02,0.03,0.05,0.05,0.05c0.04,0.01,0.08,0.01,0.12,0.01c0.66,0,1.32,0,1.97,0    C80.12,46.77,80.17,46.76,80.22,46.76z" class="st26" />
		<path d="M84.57,33.21c0.21,1.29,0.33,2.57,0.39,3.86c-0.14,0.04-20.14,0.04-20.33,0.01    c-0.09-0.33,0.24-3.44,0.38-3.87c0.04,0.01,0.09,0.02,0.14,0.04c0.7,0.24,1.41,0.4,2.14,0.48c0.45,0.06,0.91,0.1,1.37,0.11    c1.6,0.04,3.13-0.24,4.56-1c0.51-0.28,0.98-0.61,1.41-1.01c0.04-0.04,0.09-0.08,0.14-0.13c0.05,0.04,0.09,0.07,0.13,0.11    c1.03,0.95,2.25,1.53,3.61,1.82c1.02,0.22,2.05,0.26,3.08,0.18c0.99-0.08,1.97-0.26,2.91-0.59    C84.52,33.22,84.53,33.22,84.57,33.21z M67.72,35.75c0.03,0.01,0.08,0,0.09,0.02c0.04,0.07,0.07,0.14,0.1,0.21    c0.06,0,0.15,0,0.22,0c-0.09-0.13-0.17-0.25-0.26-0.38c0.09-0.1,0.17-0.19,0.26-0.29c-0.06,0-0.12,0-0.17,0    c0.01,0.11-0.04,0.18-0.14,0.24c-0.03-0.09-0.05-0.16-0.08-0.24c-0.07,0-0.15,0-0.26,0c0.05,0.06,0.08,0.1,0.11,0.14    c0.03,0.04,0.06,0.1,0.09,0.14C67.75,35.64,67.73,35.7,67.72,35.75c-0.07,0.07-0.15,0.15-0.25,0.23c0.08,0,0.14,0,0.18,0    c0.02-0.06,0.03-0.11,0.05-0.16C67.7,35.8,67.71,35.78,67.72,35.75z M78.4,35.32c-0.18-0.07-0.35,0-0.42,0.18    c-0.08,0.2,0,0.42,0.18,0.48c0.06,0.02,0.14,0.05,0.2,0c0.05,0.01,0.1,0.02,0.15,0.03c0.08,0.02,0.15,0.01,0.23-0.03    c-0.1-0.05-0.11-0.13-0.11-0.21c0-0.25,0-0.49,0-0.74c0-0.05-0.01-0.1-0.01-0.17c-0.09,0.01-0.16,0.02-0.24,0.03    c0.16,0.13,0.09,0.29,0.1,0.43C78.45,35.32,78.42,35.32,78.4,35.32z M76.58,35.6c-0.08,0.03-0.17,0.05-0.25,0.08    c-0.11,0.04-0.16,0.12-0.13,0.21c0.03,0.09,0.12,0.14,0.23,0.12c0.06-0.01,0.11-0.04,0.17-0.06c0.09,0.07,0.17,0.1,0.27,0.01    c-0.13-0.03-0.13-0.03-0.14-0.15c0-0.09,0-0.18,0-0.26c0-0.17-0.05-0.23-0.22-0.24c-0.08,0-0.17,0.03-0.25,0.06    c-0.01,0-0.01,0.06-0.01,0.1c0.03,0,0.07,0.01,0.1,0c0.02,0,0.02-0.03,0.04-0.05c0.03-0.05,0.07-0.09,0.12-0.06    c0.04,0.02,0.07,0.07,0.08,0.11C76.58,35.5,76.57,35.55,76.58,35.6L76.58,35.6z M68.9,35.96L68.9,35.96    c0.04,0.05,0.1,0.06,0.17,0.05c0.18-0.04,0.3-0.22,0.27-0.42c-0.03-0.2-0.18-0.32-0.39-0.29c-0.05,0.01-0.11,0.03-0.14,0.01    c-0.09-0.07-0.17-0.02-0.28,0c0.11,0.06,0.12,0.14,0.12,0.22c0,0.15,0,0.3,0,0.45c0,0.11,0.02,0.22-0.07,0.32c0.1,0,0.19,0,0.26,0    c-0.02-0.09-0.03-0.17-0.04-0.24C68.78,35.98,68.83,35.96,68.9,35.96z M79.93,35.66c0-0.19-0.17-0.36-0.37-0.37    c-0.22-0.01-0.4,0.15-0.4,0.35c0,0.2,0.17,0.37,0.39,0.37C79.74,36.01,79.92,35.85,79.93,35.66z M67.04,35.56    c-0.02-0.2-0.11-0.28-0.28-0.27c-0.19,0.01-0.33,0.14-0.34,0.34c-0.01,0.21,0.1,0.35,0.31,0.38c0.18,0.02,0.29-0.04,0.32-0.18    c-0.13,0.12-0.21,0.14-0.32,0.08c-0.1-0.06-0.15-0.17-0.12-0.34C66.74,35.56,66.89,35.56,67.04,35.56z M81.97,35.56    c-0.02-0.19-0.11-0.27-0.28-0.27c-0.18,0-0.32,0.14-0.34,0.32c-0.02,0.21,0.09,0.36,0.29,0.4c0.19,0.03,0.3-0.02,0.35-0.2    c-0.1,0.13-0.2,0.17-0.33,0.1c-0.1-0.05-0.15-0.17-0.12-0.35C81.67,35.56,81.82,35.56,81.97,35.56z M72.61,35.56    c0.16,0,0.31,0,0.45,0c-0.01-0.18-0.1-0.26-0.26-0.27c-0.2,0-0.35,0.13-0.36,0.33c-0.02,0.22,0.1,0.36,0.31,0.39    c0.18,0.02,0.29-0.04,0.31-0.2c-0.08,0.11-0.17,0.16-0.29,0.1C72.64,35.85,72.61,35.73,72.61,35.56z M70.36,35.56    c-0.01-0.16-0.08-0.24-0.21-0.27c-0.15-0.03-0.31,0.05-0.38,0.18c-0.08,0.14-0.05,0.34,0.06,0.44c0.1,0.1,0.31,0.13,0.43,0.05    c0.05-0.03,0.1-0.07,0.09-0.15c-0.13,0.12-0.21,0.13-0.32,0.08c-0.1-0.06-0.15-0.17-0.12-0.35c0.07,0,0.14,0,0.21,0    C70.21,35.56,70.29,35.56,70.36,35.56z M74.73,35.3c0.01,0.07,0.02,0.13,0.02,0.19c0,0.1,0,0.21,0,0.31c0,0.2,0.12,0.27,0.31,0.16    c-0.1,0-0.16-0.04-0.16-0.14c0-0.15,0-0.3,0-0.45c0.06-0.02,0.1-0.03,0.18-0.06c-0.09-0.02-0.13-0.03-0.18-0.04    c-0.01-0.06-0.02-0.11-0.03-0.18C74.82,35.17,74.77,35.24,74.73,35.3z M80.89,35.94c-0.25,0.03-0.37-0.04-0.38-0.24    c-0.01-0.09,0.01-0.19,0.05-0.27c0.06-0.13,0.15-0.13,0.24-0.02c0.02,0.03,0.07,0.04,0.1,0.06c0.01,0,0.04-0.04,0.04-0.05    c-0.02-0.04-0.04-0.07-0.07-0.1c-0.01-0.01-0.04-0.02-0.06-0.03c-0.16-0.04-0.34,0.02-0.42,0.16c-0.09,0.14-0.08,0.33,0.03,0.45    C80.52,36.02,80.68,36.04,80.89,35.94z M82.44,35.3c0.01,0.07,0.02,0.13,0.03,0.19c0,0.12,0,0.24,0,0.36    c0,0.11,0.04,0.15,0.15,0.16c0.08,0.01,0.15-0.01,0.21-0.07c-0.15,0.02-0.21,0-0.21-0.1c-0.01-0.16,0-0.31,0-0.47    c0.06-0.02,0.11-0.03,0.15-0.04c0-0.01,0-0.01,0-0.02c-0.05-0.01-0.09-0.02-0.14-0.02c-0.01-0.06-0.02-0.12-0.03-0.19    C82.54,35.17,82.49,35.24,82.44,35.3z M71.11,35.99c-0.1-0.18-0.08-0.36-0.04-0.54c0.02-0.09,0.06-0.1,0.14-0.06    c0.01,0.01,0.03,0.03,0.04,0.03c0.03,0,0.06-0.01,0.08-0.02c-0.01-0.03-0.02-0.08-0.03-0.08c-0.06-0.01-0.11-0.01-0.17,0    c-0.03,0-0.09,0.03-0.1,0.02c-0.08-0.07-0.14-0.02-0.23,0c0.13,0.09,0.09,0.21,0.09,0.32c0,0.11,0.02,0.23-0.07,0.34    C70.94,35.99,71.02,35.99,71.11,35.99z M73.52,35.32c0.11,0.14,0.11,0.5,0.01,0.66c0.1,0,0.2,0,0.31,0    c-0.11-0.09-0.08-0.2-0.08-0.3c0-0.1,0.01-0.21,0.02-0.32C73.71,35.25,73.61,35.3,73.52,35.32z M73.91,35.3    c0.04,0.04,0.13,0.08,0.13,0.14c0.02,0.18,0.05,0.37-0.04,0.55c0.1,0,0.19,0,0.26,0c-0.02-0.08-0.04-0.15-0.05-0.22    c-0.01-0.07,0-0.14,0-0.21C74.21,35.34,74.13,35.27,73.91,35.3z M71.74,35.32c0.09,0.24,0.09,0.45,0.01,0.67c0.09,0,0.18,0,0.28,0    c-0.16-0.22-0.02-0.47-0.11-0.7C71.85,35.3,71.8,35.31,71.74,35.32z M75.76,35.99c-0.14-0.23-0.01-0.48-0.1-0.71    c-0.07,0.01-0.13,0.02-0.19,0.04c0.1,0.14,0.11,0.49,0.02,0.67C75.57,35.99,75.66,35.99,75.76,35.99z M71.87,34.83    c-0.03,0.05-0.07,0.07-0.07,0.1c0,0.05,0.03,0.09,0.08,0.07c0.03-0.01,0.06-0.05,0.06-0.08C71.95,34.9,71.91,34.88,71.87,34.83z     M75.62,35.04c0.03-0.05,0.07-0.07,0.07-0.1c0-0.03-0.04-0.07-0.06-0.08c-0.05-0.01-0.09,0.03-0.08,0.08    C75.55,34.97,75.58,35,75.62,35.04z" class="st26" />
		<path d="M68.9,35.96c-0.03-0.04-0.08-0.07-0.08-0.11c-0.01-0.12-0.01-0.25,0-0.37c0.01-0.08,0.06-0.13,0.14-0.14    c0.07-0.01,0.12,0.04,0.16,0.1c0.08,0.15,0.08,0.29,0,0.44C69.06,35.95,68.99,36,68.9,35.96C68.89,35.95,68.9,35.96,68.9,35.96z" class="st26" />
		<path d="M74.38,50.66c-0.02,0.02-0.05,0.04-0.07,0.06c-0.35,0.26-0.51,0.61-0.49,1.04c0,0.12,0.04,0.24,0.11,0.34    c0.06,0.08,0.15,0.14,0.26,0.12c0.12-0.02,0.19-0.09,0.22-0.2c0.04-0.14,0.04-0.28-0.03-0.42c-0.06-0.13-0.16-0.2-0.3-0.18    c-0.03,0-0.06,0-0.09-0.01c0.15-0.1,0.31-0.11,0.47-0.03c0.16,0.08,0.23,0.22,0.23,0.39c0,0.29-0.21,0.51-0.51,0.53    c-0.34,0.02-0.57-0.17-0.6-0.5c-0.02-0.2,0.02-0.38,0.11-0.56c0.14-0.27,0.36-0.46,0.63-0.58c0.02-0.01,0.04-0.01,0.06-0.01    C74.38,50.65,74.38,50.66,74.38,50.66z" class="st26" />
		<path d="M75.69,51.37c0.03,0.05,0.06,0.09,0.08,0.12c0.12,0.21,0.1,0.42-0.03,0.61c-0.12,0.18-0.31,0.23-0.51,0.19    c-0.2-0.04-0.32-0.17-0.36-0.37c-0.02-0.11-0.02-0.22,0-0.33c0.05-0.24,0.26-0.39,0.51-0.37c0.16,0.01,0.32,0.02,0.48,0.03    c0.04,0,0.1-0.01,0.1,0.05c0,0.08-0.07,0.06-0.11,0.06C75.8,51.37,75.75,51.37,75.69,51.37z M75.03,51.76    c0.03,0.1,0.04,0.21,0.08,0.32c0.04,0.1,0.11,0.16,0.23,0.17c0.12,0,0.2-0.06,0.24-0.16c0.09-0.2,0.09-0.4,0.01-0.6    c-0.04-0.11-0.12-0.17-0.24-0.17c-0.12,0-0.21,0.06-0.25,0.16C75.07,51.56,75.05,51.66,75.03,51.76z" class="st26" />
		<path d="M68.81,41.9c0.24,1.13,0.48,2.27,0.71,3.42c-0.25,0-0.47,0-0.69,0C68.78,45.18,68.76,42.43,68.81,41.9z" class="st26" />
		<path d="M68.68,41.93c0,0.75,0,1.49,0,2.24c0,0.34,0,0.67,0,1.01c0,0.13-0.01,0.15-0.14,0.15c-0.19,0-0.37,0-0.58,0    c0.24-1.15,0.47-2.27,0.7-3.39C68.66,41.93,68.67,41.93,68.68,41.93z" class="st26" />
		<path d="M71.6,46.71c0.24-1.15,0.47-2.27,0.7-3.39c0.01,0,0.01,0,0.02,0c0,0.04,0.01,0.08,0.01,0.12    c0,1.02,0,2.04,0,3.07c0,0.03,0,0.07,0,0.1c0,0.07-0.03,0.1-0.1,0.11C72.03,46.71,71.83,46.71,71.6,46.71z" class="st26" />
		<path d="M73.18,46.7c-0.26,0-0.48,0-0.7,0c-0.04-0.14-0.05-3.19,0-3.4C72.72,44.45,72.95,45.57,73.18,46.7z" class="st26" />
		<path d="M79.19,48.61c-0.06,0-0.11,0-0.18,0c0-0.22,0-0.43,0-0.65c0-0.05,0.04-0.1,0.1-0.09    c0.03,0.01,0.07,0.06,0.08,0.09C79.19,48.18,79.19,48.39,79.19,48.61z" class="st26" />
		<path d="M77.99,48.61c-0.07,0-0.12,0-0.18,0c0-0.22,0-0.43,0-0.63c0-0.06,0.03-0.1,0.08-0.1    c0.07,0,0.1,0.05,0.1,0.11C77.99,48.19,77.99,48.39,77.99,48.61z" class="st26" />
		<path d="M78.39,48.61c-0.06,0-0.11,0.01-0.18,0.01c0-0.09,0-0.17,0-0.25c0-0.13,0-0.25,0-0.38    c0-0.06,0.03-0.11,0.09-0.11c0.06,0,0.09,0.04,0.09,0.1C78.39,48.18,78.39,48.39,78.39,48.61z" class="st26" />
		<path d="M78.61,48.61c0-0.22,0-0.42,0-0.61c0-0.07,0.02-0.13,0.1-0.12c0.07,0,0.08,0.06,0.08,0.12    c0,0.2,0,0.41,0,0.62C78.72,48.61,78.68,48.61,78.61,48.61z" class="st26" />
		<path d="M79.99,48.61c-0.06,0-0.1,0-0.15,0c-0.01-0.02-0.02-0.03-0.02-0.05c0-0.19,0-0.37,0-0.56    c0-0.03,0-0.06,0.01-0.08c0.02-0.02,0.05-0.04,0.08-0.05c0.02,0,0.05,0.02,0.06,0.04c0.01,0.02,0.01,0.04,0.01,0.06    C79.99,48.19,79.99,48.39,79.99,48.61z" class="st26" />
		<path d="M80.39,48.62c-0.07,0-0.11-0.01-0.17-0.01c0-0.22,0-0.44,0-0.65c0-0.03,0.05-0.06,0.08-0.09    c0.03,0.03,0.08,0.06,0.08,0.09C80.4,48.17,80.39,48.39,80.39,48.62z" class="st26" />
		<path d="M79.42,48.61c0-0.22,0-0.42,0-0.62c0-0.06,0.02-0.12,0.09-0.12c0.07,0,0.09,0.05,0.09,0.12    c0,0.2,0,0.41,0,0.63C79.52,48.61,79.48,48.61,79.42,48.61z" class="st26" />
		<path d="M79.3,35.62c0.04-0.08,0.07-0.17,0.12-0.24c0.06-0.08,0.14-0.07,0.22-0.02c0.15,0.11,0.16,0.42,0.02,0.55    c-0.08,0.07-0.17,0.07-0.25-0.01C79.34,35.83,79.32,35.74,79.3,35.62z" class="st26" />
		<path d="M76.57,35.6c0,0.05,0,0.11,0,0.16c0,0.04-0.01,0.09-0.03,0.13c-0.02,0.06-0.07,0.08-0.13,0.06    c-0.05-0.02-0.08-0.09-0.05-0.15c0.02-0.04,0.05-0.07,0.09-0.1C76.49,35.66,76.53,35.63,76.57,35.6    C76.58,35.6,76.57,35.6,76.57,35.6z" class="st26" />
		<path d="M78.37,35.99c-0.25-0.08-0.34-0.4-0.16-0.6c0.05-0.06,0.12-0.07,0.19-0.07c0.14,0.15,0.1,0.34,0.08,0.51    C78.47,35.89,78.4,35.94,78.37,35.99z" class="st26" />
		<path d="M66.88,35.51c-0.09,0-0.17,0-0.26,0c0-0.11,0.06-0.18,0.14-0.18C66.83,35.33,66.87,35.38,66.88,35.51z" class="st26" />
		<path d="M81.81,35.51c-0.06,0-0.11,0.01-0.16,0.01c-0.04,0-0.08-0.01-0.11-0.01c0.02-0.12,0.07-0.18,0.15-0.18    C81.76,35.33,81.79,35.38,81.81,35.51z" class="st26" />
		<path d="M72.92,35.51c-0.1,0-0.19,0-0.27,0c0.01-0.11,0.05-0.17,0.12-0.18C72.85,35.32,72.89,35.37,72.92,35.51z" class="st26" />
		<path d="M69.92,35.51c0.02-0.11,0.06-0.17,0.16-0.18c0.07-0.01,0.11,0.05,0.13,0.18    C70.12,35.51,70.03,35.51,69.92,35.51z" class="st26" />
	</g>
	<circle r="60.66" cy="74.98" cx="74.57" class="st21" />
	<g>
		<g>
			<g>
				<g>
					<path d="M51.84,122.72l0.34,0.59h3.55c-1.68,1.07-3.89,0.94-5.43-0.32c-0.35-0.29-0.66-0.62-0.91-1l3.41-5.83       l0.03-0.05l-0.34-0.61l-3.48,5.94l-0.31,0.53l0.01,0.02c0.1,0.17,0.2,0.34,0.32,0.5c0.26,0.36,0.56,0.67,0.9,0.95       c0.93,0.76,2.09,1.17,3.3,1.17c0.04,0,0.09,0,0.14,0c1.24-0.03,2.42-0.5,3.34-1.32c0.18-0.16,0.35-0.34,0.51-0.52l0.05-0.06       L51.84,122.72z" class="st1" />
				</g>
				<g>
					<path d="M51.04,116.53l-0.68-0.01l-1.81,3.06c-0.06-1.98,1.17-3.83,3.04-4.51c0.43-0.16,0.87-0.25,1.32-0.28       l3.28,5.91l0.03,0.05l0.7,0.01l-3.34-6.03l-0.3-0.53h-0.02c-0.2,0-0.4,0-0.6,0.03c-0.44,0.04-0.87,0.14-1.27,0.29       c-1.13,0.41-2.08,1.21-2.69,2.24c-0.02,0.04-0.04,0.08-0.07,0.12c-0.6,1.08-0.8,2.33-0.57,3.54c0.04,0.24,0.11,0.48,0.19,0.7       l0.03,0.08L51.04,116.53z" class="st1" />
				</g>
				<g>
					<path d="M56.7,118.9l0.34-0.59l-1.8-3.07c1.77,0.91,2.78,2.88,2.47,4.85c-0.07,0.45-0.2,0.88-0.4,1.29h-6.76H50.5       l-0.35,0.61h6.89h0.61l0.01-0.02c0.1-0.17,0.19-0.35,0.27-0.53c0.17-0.4,0.3-0.83,0.36-1.25c0.19-1.19-0.04-2.4-0.65-3.44       c-0.02-0.04-0.05-0.08-0.07-0.12c-0.65-1.05-1.66-1.84-2.82-2.22c-0.23-0.08-0.47-0.13-0.7-0.18l-0.08-0.01L56.7,118.9z" class="st1" />
				</g>
			</g>
			<g>
				<g>
					<path d="M83.06,120.8c-0.92,0-1.65-0.72-1.65-1.61c0-0.89,0.73-1.61,1.65-1.61c0.91,0,1.63,0.68,1.63,1.62       C84.69,120.09,83.95,120.8,83.06,120.8z M83.06,117.85c-0.75,0-1.34,0.56-1.34,1.32c0,0.72,0.58,1.36,1.31,1.36       c0.76,0,1.35-0.58,1.35-1.33C84.38,118.42,83.79,117.85,83.06,117.85z" class="st1" />
				</g>
				<g>
					<polygon points="86.42,118.32 86.43,120.74 86.13,120.74 86.13,117.56 88.51,120.09 88.51,117.64 88.8,117.64        88.8,120.85" class="st1" />
				</g>
				<g>
					<polygon points="90.44,120.74 90.44,117.64 90.73,117.64 90.73,120.47 92.05,120.47 92.05,120.74 90.44,120.74" class="st1" />
				</g>
				<g>
					<rect height="3.1" width="0.29" class="st1" y="117.64" x="93.37" />
				</g>
				<g>
					<polygon points="95.59,118.32 95.59,120.74 95.3,120.74 95.3,117.56 97.68,120.09 97.68,117.64 97.97,117.64        97.96,120.85" class="st1" />
				</g>
				<g>
					<polygon points="99.61,120.74 99.61,117.65 101.22,117.65 101.22,117.91 99.9,117.91 99.9,118.95 100.96,118.95        100.96,119.22 99.9,119.22 99.9,120.48 101.34,120.48 101.34,120.74 99.61,120.74" class="st1" />
				</g>
			</g>
			<g>
				<path d="M61.81,118.35c-0.18-0.24-0.4-0.26-0.51-0.26c-0.32,0-0.43,0.2-0.43,0.36c0,0.08,0.02,0.14,0.1,0.21      c0.08,0.07,0.18,0.11,0.37,0.18c0.24,0.08,0.47,0.17,0.63,0.31c0.14,0.12,0.26,0.33,0.26,0.65c0,0.6-0.44,1.01-1.08,1.01      c-0.57,0-0.9-0.35-1.07-0.58l0.4-0.38c0.15,0.3,0.43,0.41,0.65,0.41c0.28,0,0.48-0.17,0.48-0.43c0-0.11-0.04-0.2-0.12-0.28      c-0.12-0.11-0.3-0.17-0.48-0.23c-0.16-0.06-0.36-0.13-0.52-0.27c-0.1-0.09-0.24-0.26-0.24-0.57c0-0.45,0.31-0.91,0.99-0.91      c0.2,0,0.56,0.04,0.88,0.36L61.81,118.35z" class="st1" />
			</g>
			<g>
				<rect height="3.1" width="0.6" class="st1" y="117.65" x="62.53" />
			</g>
			<g>
				<polygon points="64.39,119.1 63.46,117.64 64.19,117.64 64.73,118.6 65.3,117.64 66.02,117.64 65.07,119.1       66.13,120.74 65.41,120.74 64.73,119.6 64.02,120.74 63.29,120.74" class="st1" />
			</g>
			<g>
				<path d="M68.72,118.35c-0.18-0.24-0.4-0.26-0.51-0.26c-0.32,0-0.43,0.2-0.43,0.36c0,0.08,0.02,0.14,0.1,0.21      c0.08,0.07,0.18,0.11,0.37,0.18c0.24,0.08,0.47,0.17,0.63,0.31c0.14,0.12,0.26,0.33,0.26,0.65c0,0.6-0.44,1.01-1.08,1.01      c-0.57,0-0.9-0.35-1.07-0.58l0.4-0.38c0.15,0.3,0.43,0.41,0.65,0.41c0.28,0,0.48-0.17,0.48-0.43c0-0.11-0.04-0.2-0.12-0.28      c-0.12-0.11-0.3-0.17-0.48-0.23c-0.16-0.06-0.36-0.13-0.52-0.27c-0.1-0.09-0.24-0.26-0.24-0.57c0-0.45,0.31-0.91,0.99-0.91      c0.2,0,0.56,0.04,0.88,0.36L68.72,118.35z" class="st1" />
			</g>
			<g>
				<rect height="3.1" width="0.6" class="st1" y="117.65" x="69.44" />
			</g>
			<g>
				<path d="M72.08,119.08h1.42v0.04c0,0.21-0.03,0.86-0.45,1.28c-0.32,0.32-0.72,0.41-1.1,0.41      c-0.39,0-0.78-0.08-1.12-0.42c-0.11-0.11-0.46-0.5-0.46-1.19c0-0.6,0.27-0.97,0.45-1.15c0.23-0.24,0.62-0.47,1.22-0.47      c0.23,0,0.48,0.04,0.72,0.16c0.2,0.1,0.42,0.29,0.58,0.56l-0.52,0.28c-0.11-0.21-0.26-0.32-0.36-0.36      c-0.13-0.07-0.29-0.1-0.44-0.1c-0.24,0-0.52,0.09-0.72,0.28c-0.18,0.17-0.31,0.47-0.31,0.82c0,0.41,0.18,0.66,0.31,0.78      c0.14,0.13,0.36,0.26,0.68,0.26c0.2,0,0.44-0.06,0.61-0.19c0.12-0.09,0.24-0.25,0.29-0.47h-0.8L72.08,119.08L72.08,119.08z" class="st1" />
			</g>
			<g>
				<polygon points="74.25,117.65 74.69,117.65 75.51,119.61 76.37,117.65 76.8,117.65 77.32,120.74 76.71,120.74       76.43,118.83 75.59,120.74 75.39,120.74 74.6,118.83 74.29,120.74 73.67,120.74" class="st1" />
			</g>
			<g>
				<path d="M79.61,120.09h-1.25l-0.28,0.65h-0.65l1.33-3.1h0.48l1.29,3.1h-0.65L79.61,120.09z M79.44,119.6L79,118.49      l-0.44,1.11H79.44z" class="st1" />
			</g>
		</g>
	</g>
	<g>
		<path d="M19.57,11.42c2.11,0,4.23,0,6.34,0c1.09,0,1.39,0.29,1.4,1.36c0.01,4.25,0.01,8.51,0,12.76    c0,0.96-0.34,1.35-1.29,1.35c-4.3,0.02-8.61,0.02-12.91,0c-0.97,0-1.31-0.37-1.31-1.32c-0.01-4.28-0.01-8.56,0-12.84    c0-1.03,0.29-1.31,1.35-1.32C15.29,11.42,17.43,11.42,19.57,11.42z M25.18,24.8c0-3.83,0-7.57,0-11.35c-3.79,0-7.51,0-11.27,0    c0,3.81,0,7.56,0,11.35C17.7,24.8,21.4,24.8,25.18,24.8z" class="st1" />
		<path d="M14.72,23.88c0-3.21,0-6.31,0-9.49c3.21,0,6.37,0,9.61,0c0,3.15,0,6.28,0,9.49    C21.13,23.88,17.97,23.88,14.72,23.88z M21.42,15.37c0,2.47,0,4.86,0,7.36c0.36-0.25,0.61-0.43,0.87-0.61    c0.27,0.18,0.48,0.33,0.8,0.54c0-2.49,0-4.88,0-7.29C22.48,15.37,21.97,15.37,21.42,15.37z M20.07,20.22c-1.43,0-2.82,0-4.25,0    c0,0.28,0,0.49,0,0.75c1.44,0,2.84,0,4.25,0C20.07,20.69,20.07,20.48,20.07,20.22z M15.82,22.89c1.29,0,2.4,0,3.65,0    c-0.02-0.28,0.02-0.51,0-0.77c-1.23,0-2.43,0-3.65,0C15.81,22.39,15.83,22.6,15.82,22.89z M19.01,18.28c-1.09,0-2.16,0-3.22,0    c-0.02,0.27,0.02,0.5,0,0.77c1.11,0,2.13,0,3.22,0C18.99,18.77,19.02,18.56,19.01,18.28z M15.78,16.13c0.91,0,1.84,0,2.75,0    c0.02-0.27-0.02-0.48,0-0.75c-0.94,0-1.81,0-2.75,0C15.79,15.65,15.76,15.86,15.78,16.13z" class="st1" />
	</g>
	<g>
		<path d="M24.8,73.49h2.81l2.2,4.36h0.09l2.2-4.36h2.81l-3.81,6.93v3.48h-2.5v-3.48L24.8,73.49z" class="st25" />
		<path d="M35.97,83.89V73.49h7.26v2.04h-4.74v2.13h4.37v2.05h-4.37v2.14h4.74v2.04H35.97z" class="st25" />
		<path d="M44.8,83.89V73.49h2.52v8.37h4.33v2.04H44.8z" class="st25" />
		<path d="M52.95,83.89V73.49h2.52v8.37h4.33v2.04H52.95z" class="st25" />
		<path d="M70.52,78.69c0,1.15-0.22,2.12-0.66,2.91c-0.44,0.8-1.04,1.4-1.79,1.81c-0.75,0.41-1.59,0.62-2.52,0.62    c-0.94,0-1.78-0.21-2.53-0.62c-0.75-0.42-1.34-1.02-1.78-1.82c-0.44-0.79-0.66-1.76-0.66-2.91c0-1.14,0.22-2.12,0.66-2.91    c0.44-0.8,1.03-1.4,1.78-1.81c0.75-0.41,1.59-0.62,2.53-0.62c0.93,0,1.77,0.21,2.52,0.62c0.75,0.41,1.35,1.02,1.79,1.81    C70.3,76.57,70.52,77.54,70.52,78.69z M67.94,78.69c0-0.68-0.1-1.25-0.29-1.72c-0.19-0.47-0.47-0.82-0.82-1.06    c-0.36-0.24-0.79-0.36-1.29-0.36c-0.5,0-0.93,0.12-1.29,0.36c-0.36,0.24-0.63,0.59-0.83,1.06c-0.19,0.47-0.29,1.04-0.29,1.72    c0,0.68,0.1,1.25,0.29,1.72c0.19,0.47,0.47,0.82,0.83,1.06c0.36,0.24,0.79,0.36,1.29,0.36c0.5,0,0.93-0.12,1.29-0.36    c0.36-0.24,0.63-0.59,0.82-1.06S67.94,79.37,67.94,78.69z" class="st25" />
		<path d="M73.96,83.89l-3.03-10.41h2.78l1.57,6.82h0.09l1.79-6.82h2.27l1.79,6.84h0.09l1.58-6.84h2.78l-3.02,10.41    h-2.42l-1.88-6.31h-0.08l-1.88,6.31H73.96z" class="st25" />
		<path d="M89.78,83.89V73.49h4.34c0.78,0,1.43,0.11,1.96,0.33c0.53,0.22,0.92,0.53,1.19,0.93    c0.27,0.4,0.4,0.86,0.4,1.38c0,0.4-0.08,0.75-0.25,1.06c-0.17,0.31-0.39,0.57-0.69,0.77c-0.29,0.2-0.63,0.35-1.01,0.43v0.1    c0.42,0.02,0.81,0.13,1.17,0.34c0.36,0.21,0.64,0.49,0.86,0.86c0.22,0.37,0.33,0.8,0.33,1.3c0,0.56-0.14,1.06-0.43,1.5    c-0.28,0.44-0.7,0.78-1.24,1.04c-0.54,0.25-1.19,0.38-1.96,0.38H89.78z M92.29,77.76h1.39c0.27,0,0.52-0.05,0.73-0.14    c0.21-0.09,0.38-0.22,0.5-0.4s0.18-0.38,0.18-0.62c0-0.35-0.12-0.62-0.37-0.82c-0.25-0.2-0.58-0.3-1-0.3h-1.43V77.76z     M92.29,81.87h1.55c0.55,0,0.95-0.1,1.21-0.31c0.26-0.21,0.39-0.49,0.39-0.86c0-0.27-0.06-0.5-0.19-0.69    c-0.13-0.19-0.3-0.35-0.53-0.45c-0.23-0.11-0.51-0.16-0.83-0.16h-1.6V81.87z" class="st25" />
		<path d="M99.28,83.89V73.49h7.26v2.04h-4.74v2.13h4.37v2.05h-4.37v2.14h4.74v2.04H99.28z" class="st25" />
		<path d="M108.12,83.89V73.49h2.52v8.37h4.33v2.04H108.12z" class="st25" />
		<path d="M114.65,75.53v-2.04h8.8v2.04h-3.16v8.37h-2.48v-8.37H114.65z" class="st25" />
	</g>
	<g>
		<path d="M49.18,96.65h-1.03c-0.04-0.22-0.11-0.41-0.22-0.58c-0.11-0.17-0.24-0.31-0.4-0.43    c-0.16-0.12-0.33-0.2-0.52-0.26s-0.4-0.09-0.61-0.09c-0.39,0-0.74,0.1-1.05,0.29c-0.31,0.2-0.55,0.48-0.73,0.86    c-0.18,0.38-0.27,0.84-0.27,1.39c0,0.55,0.09,1.02,0.27,1.39c0.18,0.38,0.42,0.67,0.73,0.86c0.31,0.19,0.66,0.29,1.04,0.29    c0.21,0,0.42-0.03,0.61-0.09c0.19-0.06,0.37-0.14,0.52-0.26c0.16-0.11,0.29-0.26,0.4-0.42c0.11-0.17,0.18-0.36,0.23-0.57l1.03,0    c-0.06,0.33-0.16,0.64-0.32,0.92c-0.16,0.28-0.36,0.52-0.6,0.72c-0.25,0.2-0.53,0.36-0.84,0.47c-0.31,0.11-0.66,0.16-1.03,0.16    c-0.59,0-1.11-0.14-1.57-0.42c-0.46-0.28-0.82-0.68-1.08-1.2c-0.26-0.52-0.39-1.14-0.39-1.86c0-0.72,0.13-1.34,0.4-1.86    c0.26-0.52,0.63-0.92,1.08-1.2c0.46-0.28,0.98-0.42,1.56-0.42c0.36,0,0.69,0.05,1.01,0.15c0.31,0.1,0.59,0.25,0.84,0.45    c0.25,0.2,0.45,0.44,0.62,0.72C49.01,95.96,49.12,96.29,49.18,96.65z" class="st1" />
		<path d="M52.26,101.22v-6.77h4.24v0.88h-3.22v2.06h3v0.88h-3v2.07h3.26v0.88H52.26z" class="st1" />
		<path d="M59.73,101.22v-6.77h2.41c0.52,0,0.96,0.09,1.31,0.27c0.35,0.18,0.61,0.43,0.78,0.75    c0.17,0.32,0.26,0.69,0.26,1.1c0,0.41-0.09,0.78-0.26,1.09c-0.17,0.31-0.43,0.56-0.78,0.73c-0.35,0.17-0.78,0.26-1.31,0.26h-1.83    v-0.88h1.73c0.33,0,0.6-0.05,0.81-0.14c0.21-0.1,0.36-0.23,0.46-0.41c0.1-0.18,0.15-0.4,0.15-0.65c0-0.26-0.05-0.48-0.15-0.66    c-0.1-0.19-0.25-0.33-0.46-0.43c-0.21-0.1-0.48-0.15-0.82-0.15h-1.28v5.89H59.73z M63.07,98.16l1.67,3.05h-1.16l-1.64-3.05H63.07z" class="st1" />
		<path d="M67.26,95.33v-0.88h5.24v0.88h-2.11v5.89h-1.02v-5.89H67.26z" class="st1" />
		<path d="M76.53,94.45v6.77h-1.02v-6.77H76.53z" class="st1" />
		<path d="M79.88,101.22v-6.77h4.2v0.88H80.9v2.06h2.87v0.88H80.9v2.95H79.88z" class="st1" />
		<path d="M88.21,94.45v6.77h-1.02v-6.77H88.21z" class="st1" />
		<path d="M91.56,101.22v-6.77h4.24v0.88h-3.22v2.06h3v0.88h-3v2.07h3.26v0.88H91.56z" class="st1" />
		<path d="M101.22,101.22h-2.19v-6.77h2.26c0.66,0,1.23,0.13,1.71,0.4c0.48,0.27,0.84,0.66,1.1,1.16    c0.25,0.5,0.38,1.11,0.38,1.81c0,0.71-0.13,1.31-0.38,1.82c-0.26,0.51-0.63,0.9-1.11,1.17    C102.49,101.08,101.91,101.22,101.22,101.22z M100.05,100.33h1.11c0.52,0,0.94-0.1,1.29-0.29c0.34-0.19,0.6-0.48,0.77-0.85    s0.25-0.82,0.25-1.36c0-0.53-0.08-0.98-0.25-1.35c-0.17-0.37-0.42-0.65-0.75-0.84s-0.75-0.29-1.24-0.29h-1.18V100.33z" class="st1" />
	</g>
</g>
</svg>